<svg width="100" height="100" viewBox="0 0 100 100" fill="none" xmlns="http://www.w3.org/2000/svg">
<path d="M54.7852 50C54.7852 52.6428 52.6428 54.7852 50 54.7852C47.3572 54.7852 45.2148 52.6428 45.2148 50C45.2148 47.3572 47.3572 45.2148 50 45.2148C52.6428 45.2148 54.7852 47.3572 54.7852 50Z" fill="white"/>
<path d="M61.1904 41.5338C60.9603 40.9105 60.5934 40.3463 60.1165 39.8832C59.6534 39.4064 59.0896 39.0394 58.4659 38.8094C57.9601 38.6129 57.2002 38.3791 55.8006 38.3154C54.2865 38.2463 53.8326 38.2314 49.9996 38.2314C46.1662 38.2314 45.7122 38.2459 44.1986 38.315C42.799 38.3791 42.0387 38.6129 41.5332 38.8094C40.9095 39.0394 40.3453 39.4064 39.8826 39.8832C39.4058 40.3463 39.0388 40.9101 38.8084 41.5338C38.6119 42.0397 38.3781 42.7999 38.3144 44.1995C38.2453 45.7132 38.2305 46.1672 38.2305 50.0005C38.2305 53.8336 38.2453 54.2875 38.3144 55.8016C38.3781 57.2012 38.6119 57.9611 38.8084 58.4669C39.0388 59.0906 39.4054 59.6544 39.8822 60.1175C40.3453 60.5943 40.9091 60.9613 41.5329 61.1913C42.0387 61.3882 42.799 61.622 44.1986 61.6857C45.7122 61.7548 46.1658 61.7693 49.9992 61.7693C53.833 61.7693 54.2869 61.7548 55.8002 61.6857C57.1998 61.622 57.9601 61.3882 58.4659 61.1913C59.7179 60.7084 60.7074 59.7189 61.1904 58.4669C61.3868 57.9611 61.6207 57.2012 61.6848 55.8016C61.7538 54.2875 61.7683 53.8336 61.7683 50.0005C61.7683 46.1672 61.7538 45.7132 61.6848 44.1995C61.621 42.7999 61.3872 42.0397 61.1904 41.5338ZM49.9996 57.3717C45.9281 57.3717 42.6277 54.0716 42.6277 50.0002C42.6277 45.9287 45.9281 42.6286 49.9996 42.6286C54.0706 42.6286 57.3711 45.9287 57.3711 50.0002C57.3711 54.0716 54.0706 57.3717 49.9996 57.3717ZM57.6625 44.0599C56.7112 44.0599 55.9398 43.2886 55.9398 42.3372C55.9398 41.3858 56.7112 40.6145 57.6625 40.6145C58.6139 40.6145 59.3853 41.3858 59.3853 42.3372C59.3849 43.2886 58.6139 44.0599 57.6625 44.0599Z" fill="white"/>
<path d="M50 25C36.195 25 25 36.195 25 50C25 63.805 36.195 75 50 75C63.805 75 75 63.805 75 50C75 36.195 63.805 25 50 25ZM64.2689 55.9185C64.1994 57.4467 63.9565 58.49 63.6017 59.4032C62.8559 61.3316 61.3316 62.8559 59.4032 63.6017C58.4904 63.9565 57.4467 64.1991 55.9189 64.2689C54.388 64.3387 53.899 64.3555 50.0004 64.3555C46.1014 64.3555 45.6127 64.3387 44.0815 64.2689C42.5537 64.1991 41.51 63.9565 40.5972 63.6017C39.6389 63.2412 38.7714 62.6762 38.0543 61.9457C37.3241 61.2289 36.7592 60.3611 36.3987 59.4032C36.0439 58.4904 35.8009 57.4467 35.7315 55.9189C35.6609 54.3877 35.6445 53.8986 35.6445 50C35.6445 46.1014 35.6609 45.6123 35.7311 44.0815C35.8006 42.5533 36.0432 41.51 36.3979 40.5968C36.7584 39.6389 37.3238 38.7711 38.0543 38.0543C38.7711 37.3238 39.6389 36.7588 40.5968 36.3983C41.51 36.0435 42.5533 35.8009 44.0815 35.7311C45.6123 35.6613 46.1014 35.6445 50 35.6445C53.8986 35.6445 54.3877 35.6613 55.9185 35.7315C57.4467 35.8009 58.49 36.0435 59.4032 36.3979C60.3611 36.7584 61.2289 37.3238 61.9461 38.0543C62.6762 38.7714 63.2416 39.6389 63.6017 40.5968C63.9568 41.51 64.1994 42.5533 64.2693 44.0815C64.3391 45.6123 64.3555 46.1014 64.3555 50C64.3555 53.8986 64.3391 54.3877 64.2689 55.9185Z" fill="white"/>
</svg>

