<svg width="464" height="340" viewBox="0 0 464 340" fill="none" xmlns="http://www.w3.org/2000/svg">
<path d="M201.278 72.9661C185.656 16.2517 115.272 -2.01616 74.9334 40.3721C74.3537 40.9823 73.774 41.6026 73.1943 42.2329C15.3644 105.16 42.6802 260.217 163.367 299.514C284.054 338.811 409.589 267.05 416.635 202.892C423.692 138.734 368.011 118.576 281.596 136.513C232.791 146.648 211.003 108.281 201.278 72.9661Z" fill="#94D1EB"/>
<path d="M301.664 82.6703C285.512 85.3015 281.044 99.6176 293.508 109.782C297.626 113.143 303.513 115.925 311.898 117.325C343.832 122.627 360.783 108.481 347.979 90.1435C340.084 78.8187 317.675 80.0592 301.664 82.6703Z" fill="#94D1EB"/>
<path d="M44.2085 197.26C34.1738 184.334 19.4714 187.255 16.523 203.072C15.5535 208.304 15.9233 214.807 18.7118 222.841C29.3463 253.444 49.8656 261.567 59.8303 241.539C65.9671 229.183 54.1533 210.075 44.2085 197.26Z" fill="#94D1EB"/>
<path d="M428.029 210.345C426.539 218.139 432.976 223.661 440.252 220.66C442.661 219.669 445.09 217.748 447.249 214.387C455.484 201.572 451.306 190.577 439.852 191.697C432.776 192.398 429.498 202.622 428.029 210.345Z" fill="#94D1EB"/>
<path d="M387.212 128.09C394.968 129.71 400.595 123.368 397.716 116.025C396.767 113.594 394.898 111.132 391.569 108.912C378.906 100.458 367.852 104.44 368.781 115.935C369.361 123.028 379.516 126.489 387.212 128.09Z" fill="#94D1EB"/>
<path d="M198.578 44.6833C204.725 49.6955 212.631 46.6542 213.451 38.8108C213.721 36.2197 213.191 33.1684 211.262 29.6669C203.906 16.3212 192.262 14.7705 187.804 25.4051C185.065 31.9679 192.492 39.7112 198.578 44.6833Z" fill="#94D1EB"/>
<path d="M447.27 249.342C459.594 236.947 468.979 222.931 459.644 220.75C450.299 218.559 434.607 242.979 431.868 265.209L429.13 272.542C431.409 256.375 425.872 236.687 417.776 235.876C409.73 235.066 414.597 247.841 420.994 258.766C425.862 267.08 427.141 273.642 427.461 277.024L414.537 311.679C418.066 286.078 409.3 255.004 396.487 253.724C383.713 252.443 391.449 272.712 401.594 290.039C409.26 303.135 411.319 313.489 411.849 318.902L409.27 325.815C410.4 326.445 411.529 327.075 412.658 327.696L428.04 286.458C431.009 284.237 435.517 281.566 441.923 279.395C453.907 275.343 465.941 268.89 459.334 264.218C453.597 260.167 440.114 267.97 430.829 278.975L436.146 264.719C438.545 260.597 441.953 254.694 447.27 249.342Z" fill="#1C31B5"/>
<path d="M58.8308 87.5724C60.43 72.596 59.1806 58.1197 51.7345 61.6913C44.2784 65.2628 46.897 90.1335 57.0318 106.531L59.1506 112.933C51.9744 100.848 37.6519 90.6137 31.7749 94.4454C25.938 98.247 36.0827 104.2 46.2574 108.081C54.0033 111.042 58.401 114.754 60.44 116.855L70.4248 147.108C59.0107 128.01 36.3925 111.873 27.0874 117.925C17.8222 123.958 33.9238 133.392 50.0754 139.555C62.279 144.217 69.2354 150.059 72.5037 153.401L74.4926 159.433C75.5921 159.253 76.6915 159.063 77.7809 158.873L65.9071 122.888C66.7067 119.796 68.2859 115.564 71.4242 110.652C77.2812 101.468 81.8988 90.6337 74.9424 91.0639C68.9055 91.4341 64.0581 103.949 63.7482 116.355L59.6404 103.909C59.0307 99.8377 58.1412 94.0352 58.8308 87.5724Z" fill="#1C31B5"/>
<path d="M364.083 290.53C364.243 291.38 364.423 292.3 364.633 293.291C366.852 303.615 372.299 320.523 384.552 323.844C384.552 323.844 377.886 289.029 401.663 279.955C425.441 270.891 422.812 262.248 421.453 246.881C420.094 231.514 414.837 228.583 431.338 214.187C447.839 199.791 444.681 178.341 444.681 178.341C444.681 178.341 429.069 202.822 412.388 203.392C395.707 203.962 392.788 218.209 393.498 228.803C394.207 239.398 380.045 240.598 372.379 246.741C364.713 252.884 363.273 285.167 363.273 285.167C363.273 285.167 363.493 287.288 364.083 290.53Z" fill="#009CF8"/>
<path d="M364.082 290.53C364.242 291.38 364.422 292.301 364.632 293.291C366.341 288.109 368.75 283.757 370.998 280.415C376.336 272.502 383.842 266.009 390.598 263.458C401.353 259.396 406.61 248.842 407.629 229.213C408.219 217.818 420.123 211.096 420.243 211.025C420.592 210.835 420.722 210.395 420.523 210.045C420.333 209.695 419.893 209.565 419.543 209.765C419.023 210.055 406.81 216.938 406.18 229.143C405.201 248.111 400.233 258.286 390.088 262.108C382.962 264.799 375.376 271.341 369.799 279.605C367.83 282.526 365.751 286.208 364.082 290.53Z" fill="#518FD2"/>
<path d="M100.9 323.654H117.611C108.586 322.163 86.1974 312.539 84.2084 293.251C81.6797 268.82 72.9943 269.13 58.3419 266.569C43.6996 264.018 39.6617 268.19 30.3666 249.222C21.0714 230.254 0.322266 227.863 0.322266 227.863C0.322266 227.863 19.2324 248.512 15.6143 264.208C11.9962 279.905 24.5296 286.168 34.5744 288.139C44.6191 290.109 42.2104 303.615 46.0284 312.289C47.7675 316.251 54.8937 320.353 62.13 323.644H100.9V323.654Z" fill="#518FD2"/>
<path d="M64.709 299.604C65.4386 306.917 69.6464 315.621 75.9531 322.874C76.173 323.134 76.4029 323.384 76.6427 323.644H78.5417C78.002 323.074 77.4823 322.503 77.0025 321.953C70.9657 315.01 66.7879 306.397 66.0882 299.454C64.9888 288.409 56.4633 280.886 38.4526 275.063C27.9981 271.682 24.6898 258.906 24.6598 258.776C24.5699 258.406 24.1901 258.176 23.8203 258.266C23.4505 258.356 23.2206 258.736 23.3105 259.106C23.4504 259.666 26.8187 272.762 38.0229 276.384C55.4338 282.036 63.6695 289.189 64.709 299.604Z" fill="#1C31B5"/>
<path d="M109.903 278.314C109.553 279.505 109.143 280.796 108.693 282.166C103.946 296.552 94.201 320.793 76.2004 323.654C76.2004 323.654 90.4429 274.043 57.9199 257.456C25.3969 240.868 30.4742 228.943 34.772 207.234C39.0697 185.515 47.0156 182.143 25.6967 159.063C4.36785 135.983 12.1638 105.88 12.1638 105.88C12.1638 105.88 30.6741 143.216 54.3817 146.588C78.0894 149.959 80.0583 170.748 77.4197 185.755C74.7811 200.761 94.8007 204.653 104.785 214.597C114.77 224.541 111.872 270.811 111.872 270.811C111.872 270.811 111.252 273.783 109.903 278.314Z" fill="#009CF8"/>
<path d="M109.901 278.314C109.552 279.505 109.142 280.795 108.692 282.166C107.053 274.513 104.284 267.93 101.586 262.828C95.189 250.723 85.4741 240.298 76.2289 235.616C61.5066 228.173 55.6396 212.296 57.1988 184.144C58.1083 167.807 42.1566 156.372 41.9867 156.262C41.517 155.932 41.407 155.282 41.7369 154.821C42.0667 154.351 42.7163 154.241 43.1761 154.571C43.8757 155.061 60.2372 166.767 59.2577 184.264C57.7485 211.476 63.2656 226.752 77.1484 233.775C86.9033 238.707 96.7182 249.202 103.405 261.857C105.784 266.329 108.202 271.892 109.901 278.314Z" fill="#518FD2"/>
<path d="M122.807 311.989C122.867 315.761 122.927 319.682 123.017 323.654H159.358C159.428 319.312 159.478 315.14 159.518 311.239C159.628 300.654 159.637 291.94 159.628 286.518C159.628 282.676 159.608 280.496 159.608 280.496L122.547 280.105C122.547 280.105 122.547 283.307 122.577 288.549C122.607 294.382 122.667 302.725 122.807 311.989Z" fill="#18315B"/>
<path d="M122.586 288.559C122.606 294.382 122.676 302.725 122.816 311.989C134.23 312.86 146.743 312.87 159.527 311.239C159.637 300.654 159.647 291.94 159.637 286.518L122.586 288.559Z" fill="#000B29"/>
<path d="M77.009 303.626C77.049 309.558 77.119 316.351 77.2389 323.654H113.58C113.67 319.372 113.74 315.151 113.8 311.109C113.93 302.445 113.99 294.632 114.02 289.029C114.05 283.507 114.05 280.115 114.05 280.115L76.9791 280.506C76.9791 280.506 76.9491 284.437 76.9591 291.06C76.9591 294.562 76.9791 298.804 77.009 303.626Z" fill="#18315B"/>
<path d="M76.9609 291.06C76.9609 294.562 76.9809 298.804 77.0109 303.626C84.3871 305.807 97.6002 309.188 113.802 311.109C113.932 302.445 113.992 294.632 114.022 289.029L76.9609 291.06Z" fill="#000B29"/>
<path d="M137.888 84.9514C137.888 84.9514 143.725 79.319 143.705 73.7666C143.685 68.2042 139.907 69.8449 137.888 64.6727C135.859 59.4904 129.842 56.3291 126.544 56.9694C123.245 57.5996 116.269 44.7141 106.814 46.9851C97.3589 49.256 98.1785 61.3913 94.1106 63.162C90.0427 64.9328 91.1722 72.1359 93.321 73.7766C95.4699 75.4173 96.3794 82.0202 97.5788 81.8701C98.7882 81.71 137.888 84.9514 137.888 84.9514Z" fill="#18315B"/>
<path d="M98.5782 84.8213C98.5782 84.8213 94.91 79.9192 92.1814 83.9709C89.4528 88.0227 93.3108 99.9879 99.9974 97.0666L98.5782 84.8213Z" fill="#F97853"/>
<path d="M98.5297 93.373C98.2798 93.373 98.0599 93.213 97.99 92.9629C96.9505 89.2713 93.1325 87.7707 93.0925 87.7507C92.8027 87.6406 92.6527 87.3105 92.7627 87.0203C92.8726 86.7302 93.2024 86.5802 93.4923 86.6902C93.6722 86.7602 97.89 88.3909 99.0794 92.6527C99.1594 92.9529 98.9895 93.263 98.6896 93.353C98.6396 93.363 98.5797 93.373 98.5297 93.373Z" fill="#EA5143"/>
<path d="M94.6709 91.513C94.571 91.513 94.461 91.483 94.3611 91.423C94.1012 91.253 94.0213 90.903 94.1912 90.643C94.2212 90.603 94.9008 89.563 96.3101 88.933C96.5899 88.803 96.9298 88.933 97.0597 89.223C97.1896 89.503 97.0597 89.843 96.7699 89.973C95.6704 90.463 95.1407 91.253 95.1407 91.263C95.0407 91.413 94.8608 91.513 94.6709 91.513Z" fill="#EA5143"/>
<path d="M136.419 84.8213C136.419 84.8213 140.087 79.9192 142.816 83.9709C145.545 88.0227 141.687 99.9879 135 97.0666L136.419 84.8213Z" fill="#F97853"/>
<path d="M136.468 93.3731C136.718 93.3731 136.938 93.213 137.008 92.9629C138.047 89.2713 141.865 87.7707 141.905 87.7507C142.195 87.6406 142.345 87.3105 142.235 87.0203C142.125 86.7302 141.795 86.5802 141.505 86.6902C141.325 86.7602 137.108 88.3909 135.918 92.6528C135.838 92.9529 136.008 93.2631 136.308 93.3531C136.358 93.3631 136.418 93.3731 136.468 93.3731Z" fill="#EA5143"/>
<path d="M140.328 91.513C140.428 91.513 140.538 91.483 140.638 91.423C140.898 91.253 140.978 90.903 140.808 90.643C140.778 90.603 140.098 89.563 138.689 88.933C138.409 88.803 138.069 88.933 137.939 89.223C137.809 89.503 137.939 89.843 138.229 89.973C139.318 90.463 139.858 91.253 139.858 91.263C139.958 91.413 140.138 91.513 140.328 91.513Z" fill="#EA5143"/>
<path d="M126.534 107.221V119.126C126.534 119.126 122.985 125.189 118.188 125.599C113.4 126.019 109.143 120.377 109.143 120.377V108.061L126.534 107.221Z" fill="#FFA681"/>
<path d="M126.534 107.221V112.503C123.315 116.075 117.598 116.965 109.143 115.725V108.061L126.534 107.221Z" fill="#F97853"/>
<path d="M139.066 76.6578C138.846 81.2798 138.407 87.0623 137.527 91.6943C137.307 92.8448 137.057 93.9353 136.777 94.9057C134.279 103.679 128.012 118.716 110.491 112.453C102.755 109.692 99.167 101.058 97.5678 92.2846C96.4784 86.322 96.3185 80.2994 96.3984 75.9976C96.4784 71.6057 98.8772 67.594 102.695 65.423C113.04 59.5505 123.954 61.7414 131.14 64.5026C136.138 66.4235 139.326 71.3256 139.066 76.6578Z" fill="#FFA681"/>
<path d="M97.5781 92.2745C97.5781 92.2745 99.2772 102.419 100.886 106.11C102.496 109.802 106.883 110.502 108.532 113.624C110.881 118.076 114.459 121.607 120.356 119.456C125.254 117.665 125.034 115.154 127.782 113.214C132.49 109.892 134.819 106.23 135.009 103.199C135.199 100.168 137.537 91.6842 137.537 91.6842L135.009 91.5042C135.009 91.5042 133.569 94.4854 131.451 97.7768C129.322 93.1048 119.087 96.5063 119.087 96.5063L117.128 97.1366L115.119 96.5063C115.119 96.5063 104.764 93.2549 102.715 98.147C101.466 96.2262 100.447 94.0753 99.9769 91.7843L97.5781 92.2745ZM117.138 98.7172C128.882 96.6964 126.783 103.579 126.703 103.829C125.903 104.59 125.094 105.22 124.294 105.66C119.747 108.121 119.257 107.751 117.458 107.831C115.629 107.921 113.11 107.381 110.561 105.95C109.762 105.5 108.572 104.64 107.273 103.449C107.263 103.449 105.414 97.1366 117.138 98.7172Z" fill="#18315B"/>
<path d="M110.083 86.371C110.083 87.641 109.433 88.6711 108.623 88.6711C107.814 88.6711 107.164 87.641 107.164 86.371C107.164 85.101 107.814 84.071 108.623 84.071C109.423 84.071 110.083 85.101 110.083 86.371Z" fill="#18315B"/>
<path d="M127.444 86.371C127.444 87.641 126.794 88.6711 125.985 88.6711C125.175 88.6711 124.525 87.641 124.525 86.371C124.525 85.101 125.175 84.071 125.985 84.071C126.794 84.071 127.444 85.101 127.444 86.371Z" fill="#18315B"/>
<path d="M131.739 78.7982C131.739 78.7982 125.702 76.4082 121.055 78.4182L121.524 81.0082C121.524 81.0082 128.351 80.4282 131.789 81.8282C132.079 80.8282 132.129 79.8182 131.739 78.7982Z" fill="#18315B"/>
<path d="M103.034 78.8082C103.034 78.8082 109.111 76.4082 113.798 78.4282L113.329 81.0382C113.329 81.0382 106.452 80.4582 102.994 81.8582C102.684 80.8482 102.634 79.8382 103.034 78.8082Z" fill="#18315B"/>
<path d="M117.698 96.0163C118.648 96.0163 119.597 95.6461 119.747 95.5861C120.037 95.466 120.177 95.1359 120.057 94.8458C119.937 94.5556 119.607 94.4156 119.317 94.5356C118.807 94.7457 117.578 95.0659 117.048 94.7457C116.948 94.6857 116.808 94.5656 116.768 94.2155C116.569 92.2446 117.108 85.6218 117.108 85.5517C117.138 85.2416 116.898 84.9715 116.588 84.9415C116.279 84.9115 116.009 85.1516 115.979 85.4617C115.959 85.7418 115.429 92.2546 115.639 94.3255C115.719 95.1059 116.129 95.506 116.459 95.7061C116.828 95.9362 117.258 96.0163 117.698 96.0163Z" fill="#F97853"/>
<path d="M110.49 99.8479C110.92 102.009 112.339 105.98 117.147 105.98C121.964 105.98 123.314 102.349 123.773 99.8479H110.49Z" fill="white"/>
<path d="M139.067 76.6579C138.847 81.2799 138.407 87.0624 137.527 91.6944L134.999 91.5143C134.999 91.5143 135.608 87.6126 135.888 85.0615C136.168 82.5204 136.648 77.7583 134.479 77.1681C132.32 76.5778 133.589 71.1555 130.571 68.8045C127.563 66.4435 120.876 64.3726 116.428 67.1038C111.991 69.8349 106.943 68.3243 104.894 68.8045C102.845 69.2747 100.067 72.0959 100.816 74.737C101.576 77.3682 99.3172 78.9789 98.7675 81.71C98.2177 84.4412 99.9668 91.7944 99.9668 91.7944L97.5581 92.2846C96.4686 86.322 96.3087 80.2994 96.3887 75.9976C96.4686 71.6057 98.8674 67.594 102.685 65.423C113.03 59.5505 123.944 61.7414 131.131 64.5026C136.138 66.4235 139.327 71.3256 139.067 76.6579Z" fill="#18315B"/>
<path d="M167.292 298.383C155.868 301.284 144.434 303.155 133 304.016C132.48 304.056 131.97 304.096 131.45 304.126C129.881 304.236 128.302 304.316 126.733 304.386C118.957 304.726 111.171 304.586 103.395 303.986C101.826 303.866 100.257 303.725 98.6875 303.565C98.1877 303.515 97.688 303.465 97.1782 303.405C87.8831 302.395 78.5979 300.714 69.3028 298.373C69.2128 289.799 69.3128 262.698 69.8425 233.305C69.9025 229.774 69.9724 226.212 70.0524 222.641C70.8719 183.904 72.4611 144.577 75.3296 140.645C78.0682 136.874 86.3339 132.082 94.2298 127.76C94.6995 127.5 95.1693 127.25 95.639 126.989C97.4181 126.019 99.1472 125.089 100.786 124.198C104.285 122.287 107.303 120.597 109.172 119.286V120.367C109.172 120.367 113.42 125.999 118.217 125.579C122.585 125.199 125.913 120.156 126.473 119.246C128.532 120.697 132.23 122.698 136.528 124.969C137.717 125.599 138.956 126.249 140.216 126.919C140.676 127.159 141.145 127.41 141.615 127.66C150.351 132.292 159.766 137.524 162.594 141.406C162.804 141.696 163.004 142.176 163.194 142.836C164.863 148.509 165.902 167.317 166.532 190.097C166.532 190.177 166.542 190.257 166.542 190.347C166.572 191.267 166.592 192.197 166.612 193.128C166.612 193.248 166.622 193.368 166.622 193.498C166.832 201.491 166.982 209.905 167.102 218.349C167.112 219.019 167.122 219.689 167.132 220.36C167.132 220.7 167.142 221.03 167.142 221.37C167.172 223.031 167.192 224.701 167.202 226.352C167.222 227.573 167.232 228.793 167.242 230.014C167.542 260.587 167.412 289.409 167.292 298.383Z" fill="#518FD2"/>
<path d="M166.592 193.148C163.843 188.656 160.885 184.064 158.106 180.002C158.096 179.992 158.086 179.982 158.086 179.972C156.917 178.271 155.778 176.661 154.698 175.19C154.678 175.16 154.658 175.14 154.638 175.11C154.298 174.65 153.968 174.2 153.639 173.76C153.589 173.68 153.549 173.609 153.519 173.519C153.429 173.229 153.529 172.899 153.789 172.699C154.128 172.449 154.598 172.509 154.848 172.849C158.186 177.281 162.464 183.644 166.502 190.117C166.502 190.197 166.512 190.277 166.512 190.367C166.542 191.287 166.572 192.208 166.592 193.148Z" fill="#91B3FA"/>
<path d="M162.683 140.805C162.683 140.805 179.914 172.409 190.429 188.436C190.429 188.436 196.405 182.944 204.171 175.59C212.597 167.617 224.121 154.301 224.121 154.301L230.498 161.874C230.498 161.874 204.611 208.515 192.997 214.367C181.383 220.23 159.984 178.742 159.984 178.742L162.683 140.805Z" fill="#518FD2"/>
<path d="M89.7027 265.379C89.6927 265.379 89.6827 265.379 89.6727 265.379C89.243 265.359 88.9031 264.999 88.9231 264.569C89.8226 239.048 76.5996 230.774 76.4697 230.694C76.0999 230.474 75.9799 229.994 76.1998 229.624C76.4197 229.253 76.8994 229.133 77.2693 229.353C77.4192 229.444 80.9073 231.564 84.2956 237.017C87.3839 241.989 90.9721 250.813 90.4823 264.629C90.4623 265.049 90.1225 265.379 89.7027 265.379Z" fill="#91B3FA"/>
<path d="M146.115 241.329C145.715 241.329 145.375 241.019 145.335 240.608C144.916 235.236 146.685 231.314 148.924 226.352C149.583 224.902 150.253 223.401 150.952 221.71C155.3 211.156 153.111 199.09 153.091 198.97C153.011 198.55 153.291 198.14 153.711 198.06C154.131 197.98 154.541 198.26 154.621 198.68C154.721 199.191 156.909 211.326 152.392 222.3C151.692 224.011 151.002 225.522 150.343 226.982C148.114 231.925 146.495 235.506 146.885 240.478C146.915 240.908 146.595 241.279 146.165 241.319C146.155 241.329 146.135 241.329 146.115 241.329Z" fill="#91B3FA"/>
<path d="M100.766 124.208C101.095 126.719 101.585 129.981 102.125 133.682C102.285 134.783 102.455 135.923 102.615 137.094C103.154 140.915 103.714 145.077 104.194 149.289C104.324 150.42 104.444 151.55 104.554 152.681C104.973 156.842 105.293 160.984 105.403 164.836C105.443 165.996 105.453 167.137 105.453 168.237C105.443 171.178 105.283 173.87 104.923 176.181C104.694 177.641 104.494 179.062 104.314 180.462C104.164 181.623 104.034 182.753 103.914 183.874C103.464 188.216 103.234 192.258 103.164 196.069C103.144 197.23 103.144 198.36 103.154 199.471C103.184 203.793 103.434 207.824 103.794 211.666C103.904 212.816 104.014 213.947 104.134 215.057C104.604 219.249 105.163 223.241 105.703 227.183C105.863 228.313 106.013 229.434 106.153 230.564C106.383 232.365 106.603 234.176 106.792 235.986C106.992 237.907 107.122 240.168 107.182 242.659C107.212 243.75 107.232 244.89 107.232 246.071C107.252 249.802 107.152 253.944 106.982 258.266C106.932 259.396 106.892 260.537 106.832 261.697C106.643 265.719 106.383 269.851 106.103 273.923C106.023 275.073 105.933 276.214 105.853 277.354C105.543 281.596 105.193 285.738 104.833 289.579C104.724 290.75 104.624 291.89 104.514 292.991C104.104 297.223 103.714 300.984 103.374 303.996C111.16 304.596 118.936 304.726 126.722 304.386C126.902 301.195 127.402 296.032 127.891 289.97C127.981 288.859 128.071 287.719 128.161 286.548C128.451 282.687 128.721 278.565 128.891 274.403C128.941 273.262 128.981 272.122 129.011 270.971C129.131 266.82 129.131 262.688 128.951 258.816C128.901 257.646 128.831 256.495 128.741 255.375C128.651 254.234 128.541 253.114 128.411 252.043C128.031 249.002 127.891 246.081 127.911 243.2C127.911 242.059 127.941 240.919 128.001 239.778C128.181 235.816 128.611 231.855 129.111 227.643C129.241 226.522 129.381 225.392 129.521 224.231C129.97 220.49 130.44 216.518 130.81 212.166C130.91 211.056 131 209.915 131.08 208.745C131.34 205.013 131.51 201.011 131.54 196.639C131.55 195.509 131.54 194.368 131.53 193.188C131.49 189.406 131.33 185.365 131.02 181.013C130.99 180.623 130.97 180.232 130.94 179.842C130.88 179.082 130.83 178.312 130.8 177.541C130.6 173.57 130.65 169.478 130.88 165.406C130.94 164.265 131.02 163.115 131.1 161.975C131.41 157.893 131.869 153.851 132.399 149.979C132.559 148.829 132.719 147.688 132.889 146.568C133.529 142.326 134.208 138.324 134.838 134.753C135.048 133.582 135.248 132.452 135.438 131.371C135.867 128.96 136.237 126.809 136.507 124.989C132.219 122.718 128.521 120.717 126.452 119.266C125.892 120.177 122.564 125.219 118.197 125.599C113.409 126.019 109.151 120.387 109.151 120.387V119.306C107.282 120.607 104.264 122.307 100.766 124.208Z" fill="white"/>
<path d="M102.125 133.682C102.285 134.783 102.455 135.923 102.615 137.094C106.913 137.194 111.96 136.544 118.047 135.143C124.563 133.642 130.3 133.903 134.838 134.743C135.048 133.572 135.248 132.442 135.438 131.361C130.53 130.451 124.333 130.191 117.287 131.822C111.28 133.212 106.273 133.843 102.125 133.682Z" fill="#E3E3E3"/>
<path d="M104.193 149.289C104.323 150.42 104.443 151.55 104.553 152.68C108.411 152.58 112.849 151.93 118.036 150.73C123.423 149.489 128.291 149.459 132.389 149.969C132.549 148.819 132.709 147.678 132.878 146.558C128.441 146.008 123.153 146.058 117.277 147.408C112.239 148.579 107.911 149.209 104.193 149.289Z" fill="#E3E3E3"/>
<path d="M105.412 164.836C105.452 165.996 105.462 167.137 105.462 168.237C109.11 168.067 113.258 167.427 118.045 166.327C122.783 165.236 127.111 165.076 130.869 165.406C130.929 164.266 131.009 163.115 131.089 161.975C127.041 161.645 122.383 161.835 117.276 163.005C112.778 164.046 108.85 164.656 105.412 164.836Z" fill="#E3E3E3"/>
<path d="M103.924 183.874C107.932 183.824 112.569 183.174 118.047 181.913C122.844 180.803 127.222 180.663 131.02 181.003C130.99 180.613 130.97 180.223 130.94 179.832C130.88 179.072 130.83 178.302 130.8 177.531C126.822 177.231 122.264 177.441 117.287 178.592C112.309 179.742 108.022 180.373 104.334 180.463C104.174 181.623 104.044 182.764 103.924 183.874Z" fill="#E3E3E3"/>
<path d="M103.164 199.471C107.342 199.501 112.22 198.86 118.037 197.51C123.064 196.349 127.622 196.239 131.53 196.639C131.54 195.509 131.53 194.368 131.52 193.188C127.372 192.808 122.564 192.968 117.277 194.188C111.77 195.459 107.112 196.099 103.174 196.069C103.164 197.23 103.154 198.36 103.164 199.471Z" fill="#E3E3E3"/>
<path d="M103.803 211.656C103.913 212.806 104.023 213.937 104.143 215.047C108.1 214.987 112.668 214.337 118.035 213.097C122.753 212.006 127.06 211.846 130.798 212.156C130.898 211.046 130.988 209.905 131.068 208.735C127.02 208.404 122.373 208.595 117.266 209.765C112.068 210.976 107.601 211.616 103.803 211.656Z" fill="#E3E3E3"/>
<path d="M105.713 227.183C105.873 228.313 106.023 229.434 106.163 230.564C109.631 230.344 113.549 229.724 118.036 228.693C122.054 227.763 125.772 227.513 129.101 227.643C129.231 226.522 129.371 225.392 129.51 224.231C125.842 224.061 121.725 224.341 117.267 225.372C112.909 226.372 109.081 226.983 105.713 227.183Z" fill="#E3E3E3"/>
<path d="M107.199 242.659C107.229 243.75 107.249 244.89 107.249 246.071C110.448 245.801 114.016 245.21 118.044 244.27C121.582 243.46 124.9 243.16 127.908 243.19C127.908 242.049 127.938 240.909 127.998 239.768C124.73 239.738 121.132 240.058 117.284 240.949C113.536 241.819 110.198 242.389 107.199 242.659Z" fill="#E3E3E3"/>
<path d="M106.84 261.698C110.138 261.447 113.846 260.837 118.034 259.867C121.982 258.956 125.65 258.696 128.948 258.826C128.899 257.656 128.829 256.505 128.739 255.385C125.27 255.285 121.422 255.585 117.274 256.545C113.456 257.426 110.038 258.006 106.99 258.266C106.95 259.397 106.9 260.547 106.84 261.698Z" fill="#E3E3E3"/>
<path d="M105.861 277.354C109.409 277.154 113.427 276.524 118.045 275.463C121.973 274.553 125.621 274.293 128.889 274.413C128.939 273.273 128.979 272.132 129.009 270.982C125.471 270.862 121.533 271.152 117.275 272.142C113.088 273.112 109.379 273.713 106.111 273.933C106.031 275.073 105.941 276.214 105.861 277.354Z" fill="#E3E3E3"/>
<path d="M104.521 293.001C108.389 292.901 112.837 292.251 118.034 291.05C121.573 290.24 124.881 289.94 127.889 289.97C127.979 288.859 128.069 287.719 128.159 286.548C124.841 286.498 121.193 286.818 117.275 287.719C112.527 288.819 108.409 289.439 104.841 289.58C104.741 290.75 104.631 291.891 104.521 293.001Z" fill="#E3E3E3"/>
<path d="M131.439 304.136C131.959 304.106 132.469 304.066 132.989 304.026C136.057 285.978 134.288 259.476 133.628 251.363C132.949 242.929 134.258 232.095 137.226 221.63C139.525 213.507 138.116 194.659 136.987 179.522C136.667 175.27 136.367 171.259 136.187 167.957C135.607 157.303 139.465 137.574 141.584 127.69C141.114 127.44 140.645 127.19 140.185 126.949C138.056 136.734 134.058 156.912 134.668 168.047C134.848 171.359 135.158 175.38 135.467 179.642C136.597 194.669 137.996 213.357 135.767 221.22C132.749 231.855 131.419 242.889 132.119 251.493C132.779 259.606 134.558 286.268 131.439 304.136Z" fill="#91B3FA"/>
<path d="M100.018 230.684C101.817 241.779 101.257 248.992 100.597 257.336C100.387 260.037 100.168 262.818 100.008 265.899C99.5279 275.554 97.8988 295.012 97.1692 303.416C97.6689 303.476 98.1686 303.526 98.6784 303.576C99.398 295.162 101.037 275.664 101.527 265.969C101.677 262.918 101.897 260.137 102.107 257.456C102.766 249.012 103.346 241.719 101.517 230.444C101.127 228.023 100.707 225.562 100.298 223.121C98.2586 211.026 96.1397 198.52 97.1392 192.528C97.379 191.067 97.6889 189.406 98.0287 187.646C99.388 180.413 101.077 171.419 100.547 163.605C100.018 155.862 96.8493 134.903 95.63 127.01C95.1602 127.26 94.6905 127.52 94.2207 127.78C95.49 136.043 98.5185 156.192 99.0382 163.715C99.5579 171.329 97.8888 180.222 96.5495 187.376C96.2197 189.146 95.8998 190.807 95.66 192.288C94.6205 198.53 96.6594 210.606 98.8183 223.391C99.2181 225.812 99.6279 228.263 100.018 230.684Z" fill="#91B3FA"/>
<path d="M70.2138 153.521C70.2138 153.521 54.7819 205.023 50.9639 223.381C47.1459 241.739 46.846 279.885 46.846 279.885C46.846 279.885 40.0995 293.901 39.9396 300.134C39.7697 306.787 43.2579 312.069 42.8581 316.421C42.4583 320.773 47.7555 318.412 46.2563 309.598C44.7571 300.784 49.0049 292.801 50.8339 293.061C52.663 293.321 49.3147 302.685 50.9439 306.057C52.573 309.428 54.6719 302.875 56.7708 298.894C58.9397 294.762 58.8198 285.748 57.8303 279.315C56.8408 272.882 68.4947 233.796 68.5547 222.471L83.307 172.559C83.307 172.569 78.4296 151.74 70.2138 153.521Z" fill="#FFA681"/>
<path d="M85.1964 171.319C84.6767 174.63 82.8476 180.313 80.4789 187.456C80.279 188.056 80.0691 188.676 79.8692 189.296C79.8592 189.326 79.8492 189.356 79.8392 189.386C79.2495 191.167 78.6298 193.028 77.9902 194.949C77.9902 194.959 77.9802 194.969 77.9802 194.979C75.3615 202.932 72.463 212.026 70.0343 221.38C69.1947 224.582 68.4151 227.813 67.7255 231.034C66.836 235.146 66.0864 239.248 65.5367 243.26C63.5677 257.716 59.7897 276.034 59.7897 276.034C54.2525 278.305 45.6071 275.303 45.6071 275.303C45.6071 275.303 45.3872 248.922 46.6165 238.678C48.1457 226.002 50.0847 216.988 52.4935 206.624C59.12 178.122 70.7839 150.24 73.9822 142.836C74.2321 142.246 74.432 141.786 74.5719 141.466H77.3205C82.7677 144.937 86.6057 162.405 85.1964 171.319Z" fill="#518FD2"/>
<path d="M45.166 270.041L45.5958 276.114C45.5958 276.114 53.8215 278.785 59.9883 276.904L61.6174 271.492C55.6805 271.802 50.2034 271.652 45.166 270.041Z" fill="#009CF8"/>
<path d="M80.4779 187.455C80.4779 187.545 80.4579 187.635 80.4279 187.726C80.238 188.236 80.0481 188.766 79.8682 189.306C79.8582 189.336 79.8482 189.366 79.8382 189.396C79.2286 191.117 78.6189 192.988 77.9892 194.959C77.9892 194.969 77.9792 194.979 77.9792 194.989C74.7609 205.243 71.4826 218.139 69.9734 226.372C69.9934 224.711 70.0034 223.051 70.0334 221.39C69.1938 224.591 68.4142 227.823 67.7246 231.044C68.0344 228.023 68.894 223.501 70.0734 218.369C72.4521 207.994 76.1002 195.139 78.9987 187.205C79.1386 186.815 79.5784 186.615 79.9682 186.755C80.288 186.865 80.4779 187.145 80.4779 187.455Z" fill="#91B3FA"/>
<path d="M356.473 323.654H392.914C392.794 321.123 392.674 318.702 392.555 316.411C391.915 303.916 391.375 295.412 391.375 295.412L361.73 296.732L359.272 296.842L354.914 297.043C354.914 297.043 355.334 304.646 355.993 315.791C356.153 318.252 356.313 320.883 356.473 323.654Z" fill="#18315B"/>
<path d="M359.291 296.842L354.934 297.043C354.934 297.043 355.353 304.646 356.013 315.791C367.397 316.741 379.831 317.131 392.574 316.411C391.934 303.916 391.394 295.412 391.394 295.412L361.75 296.732L359.291 296.842Z" fill="#000B29"/>
<path d="M363.259 323.653C362.589 312.088 362.05 302.214 361.75 296.732L359.291 296.842C359.591 302.304 360.131 312.128 360.8 323.653H363.259Z" fill="#000B29"/>
<path d="M345.781 323.654C345.971 320.523 346.141 317.551 346.301 314.81C346.93 304.196 347.32 297.033 347.32 297.033L342.593 296.823L340.134 296.713L310.859 295.412C310.859 295.412 310.539 300.484 310.1 308.538C309.87 312.829 309.6 317.982 309.33 323.654H345.781Z" fill="#18315B"/>
<path d="M310.111 308.538C318.057 310.408 330.87 313.03 346.312 314.81C346.942 304.196 347.332 297.033 347.332 297.033L342.604 296.823L340.146 296.713L310.871 295.412C310.871 295.412 310.551 300.484 310.111 308.538Z" fill="#000B29"/>
<path d="M341.091 323.654C341.761 312.119 342.301 302.284 342.6 296.822L340.152 296.712C339.852 302.194 339.302 312.079 338.643 323.654H341.091Z" fill="#000B29"/>
<path d="M396.682 301.094C389.256 303.135 381.83 304.686 374.413 305.716C371.835 306.077 369.256 306.387 366.667 306.617C363.189 306.937 359.711 307.157 356.233 307.267C350.486 307.447 344.729 307.317 338.982 306.887C327.858 306.077 316.743 304.126 305.619 301.084C305.519 290.7 305.669 253.474 306.449 217.568C306.489 215.958 306.519 214.347 306.559 212.746C306.569 212.406 306.579 212.066 306.579 211.726C306.589 211.356 306.599 210.986 306.609 210.615C306.639 209.475 306.669 208.345 306.689 207.214C306.749 204.903 306.809 202.622 306.869 200.351C306.909 199 306.949 197.65 306.989 196.319C306.999 196.039 307.009 195.769 307.019 195.489C307.049 194.609 307.079 193.738 307.099 192.868C307.109 192.598 307.119 192.328 307.129 192.058C307.158 191.257 307.178 190.457 307.208 189.666C307.238 188.996 307.258 188.326 307.278 187.666C308.138 163.445 309.397 144.337 311.206 141.646C314.265 137.084 324.679 131.021 333.055 126.079C336.043 124.328 339.602 122.498 341.641 121.147C344.619 123.548 346.778 125.709 351.186 125.559C356.123 125.389 357.332 122.418 359.221 119.876C360.371 120.627 363.289 123.018 364.808 123.908C366.108 124.679 367.507 125.489 368.976 126.329C371.245 127.63 373.654 129.01 376.043 130.411C379.581 132.492 383.069 134.643 385.967 136.704C388.856 138.755 391.155 140.725 392.284 142.426C393.923 144.887 394.983 160.824 395.662 181.793C395.692 182.523 395.712 183.274 395.742 184.024C395.742 184.114 395.742 184.204 395.742 184.294C395.772 185.055 395.792 185.835 395.812 186.615C395.882 188.976 395.942 191.387 396.012 193.838C396.022 194.359 396.042 194.879 396.042 195.399C396.052 195.789 396.062 196.179 396.072 196.569C396.092 197.58 396.122 198.59 396.142 199.611C396.152 199.811 396.152 200.021 396.152 200.221C396.212 202.912 396.262 205.643 396.312 208.395C396.332 209.195 396.342 210.005 396.352 210.816C396.962 248.572 396.822 289.94 396.682 301.094Z" fill="#518FD2"/>
<path d="M396.341 210.826L384.587 222.761L373.633 211.646L362.678 222.761L351.684 211.596L340.69 222.761L329.625 211.526L318.561 222.761L306.607 210.625C306.637 209.485 306.667 208.354 306.687 207.224C306.747 204.913 306.807 202.632 306.867 200.361L318.551 188.496L329.615 199.731L340.68 188.496L351.674 199.661L362.668 188.496L373.623 199.611L384.577 188.496L396.141 200.221C396.201 202.912 396.251 205.643 396.301 208.395C396.321 209.205 396.331 210.015 396.341 210.826Z" fill="#91B3FA"/>
<path d="M376.053 272.342C360.311 272.272 346.868 265.099 338.372 259.096C329.177 252.604 323.61 246.031 323.55 245.961C323.28 245.641 323.32 245.16 323.64 244.89C323.96 244.62 324.439 244.66 324.709 244.98C324.759 245.04 330.236 251.493 339.272 257.876C347.587 263.738 360.721 270.751 376.053 270.811C376.472 270.811 376.812 271.152 376.802 271.572C376.812 272.012 376.472 272.342 376.053 272.342Z" fill="#91B3FA"/>
<path d="M366.24 263.028C352.837 260.387 340.973 250.113 340.433 249.642C340.113 249.362 340.083 248.892 340.363 248.572C340.643 248.252 341.113 248.222 341.433 248.502C341.573 248.622 355.535 260.707 369.758 262.008C370.178 262.038 370.478 262.418 370.448 262.828C370.408 263.248 370.038 263.548 369.628 263.518C368.479 263.408 367.349 263.248 366.24 263.028Z" fill="#91B3FA"/>
<path d="M339.392 146.428C339.033 146.428 338.723 146.178 338.653 145.808C338.573 145.397 338.843 144.997 339.252 144.917C358.442 141.276 364.229 128.91 364.289 128.79C364.459 128.41 364.909 128.24 365.289 128.41C365.668 128.58 365.838 129.03 365.668 129.411C365.429 129.951 359.492 142.616 339.542 146.408C339.482 146.418 339.432 146.428 339.392 146.428Z" fill="#91B3FA"/>
<path d="M315.973 179.692C315.953 179.782 315.913 179.862 315.873 179.942C315.583 180.402 315.283 180.883 314.983 181.363C314.963 181.393 314.953 181.413 314.933 181.443C313.974 182.993 312.974 184.694 311.945 186.485C311.945 186.495 311.935 186.505 311.925 186.515C310.316 189.336 308.647 192.398 307.018 195.499C307.048 194.618 307.078 193.748 307.098 192.878C307.108 192.608 307.118 192.337 307.128 192.067C309.756 187.175 312.385 182.603 314.584 179.132C314.813 178.772 315.273 178.672 315.633 178.902C315.913 179.072 316.033 179.392 315.973 179.692Z" fill="#91B3FA"/>
<path d="M412.685 151.59C412.685 151.59 437.222 143.697 444.489 127.58C446.587 122.908 429.286 75.5073 429.286 75.5073L420.931 75.9075C420.931 75.9075 423.31 92.3546 424.759 101.669C425.948 109.322 427.867 118.476 428.507 121.487C428.647 122.137 428.727 122.508 428.727 122.508C428.317 122.578 427.907 122.658 427.487 122.738C416.023 125.069 401.381 132.542 401.381 132.542L412.685 151.59Z" fill="#FFA681"/>
<path d="M434.894 127.049C435.244 127.3 435.744 127.23 435.994 126.879C436.254 126.519 436.174 126.029 435.824 125.779C434.035 124.478 431.346 122.958 428.518 121.487C428.657 122.137 428.737 122.507 428.737 122.507C428.328 122.578 427.918 122.658 427.498 122.738C430.367 124.218 433.125 125.769 434.894 127.049Z" fill="#F97853"/>
<path d="M375.135 129.911C375.135 129.911 367.709 147.348 386.609 157.052C399.692 163.775 429.487 146.228 429.487 146.228L418.862 123.658C418.862 123.658 391.597 134.913 375.135 129.911Z" fill="#518FD2"/>
<path d="M425.01 48.8558C424.27 49.3761 424.42 52.5774 424.75 55.5987C424.65 55.6187 424.54 55.6287 424.43 55.6487C423.55 51.627 421.801 44.7741 420.302 46.0846C419.323 46.945 420.632 52.8476 421.531 56.3791C421.352 56.4391 421.162 56.4991 420.982 56.5591C419.852 52.3673 417.424 44.2939 415.814 45.8645C414.735 46.915 416.804 54.018 417.953 57.6496C417.793 57.7096 417.633 57.7697 417.484 57.8397C416.384 54.3182 414.035 47.6653 412.426 49.226C410.967 50.6466 415.145 60.7009 415.145 60.7009L416.244 64.6526C416.244 64.6526 414.945 65.2129 412.916 62.9119C410.887 60.6109 408.458 60.2107 410.147 63.5321C412.056 67.2938 414.875 69.9849 416.114 72.6461C417.354 75.3072 421.262 76.1876 421.262 76.1876L429.108 75.8074C429.108 75.8074 430.627 62.5417 427.698 56.209C427.179 52.4474 426.299 47.9554 425.01 48.8558Z" fill="#FFA681"/>
<path d="M327.969 79.459C327.969 92.8347 336.194 102.049 349.548 102.049C362.911 102.049 372.216 92.1444 372.216 78.7687C372.216 75.0771 371.616 71.6356 370.457 68.5943C370.387 68.4142 370.317 68.2341 370.247 68.0541C370.107 67.7039 369.957 67.3638 369.797 67.0236C369.567 66.5034 369.307 66.0032 369.027 65.513C365.549 59.2503 359.312 55.2686 350.937 55.2686C334.925 55.2686 327.969 66.0932 327.969 79.459Z" fill="#18315B"/>
<path d="M330.969 85.2216C330.969 85.2216 327.261 80.2694 324.502 84.3612C321.743 88.4529 325.641 100.558 332.398 97.5969L330.969 85.2216Z" fill="#F97853"/>
<path d="M330.92 93.8634C330.67 93.8634 330.44 93.6933 330.37 93.4432C329.321 89.7116 325.453 88.1909 325.423 88.1809C325.133 88.0709 324.983 87.7408 325.093 87.4406C325.203 87.1505 325.533 87.0004 325.832 87.1105C326.012 87.1805 330.27 88.8312 331.479 93.1331C331.569 93.4332 331.389 93.7534 331.08 93.8334C331.03 93.8534 330.97 93.8634 330.92 93.8634Z" fill="#EA5143"/>
<path d="M327.021 91.9833C326.911 91.9833 326.811 91.9533 326.711 91.8933C326.441 91.7233 326.371 91.3733 326.541 91.1033C326.571 91.0633 327.251 90.0133 328.68 89.3733C328.97 89.2433 329.31 89.3733 329.43 89.6633C329.56 89.9533 329.43 90.2933 329.14 90.4133C328.031 90.9133 327.501 91.7133 327.491 91.7133C327.391 91.8833 327.211 91.9833 327.021 91.9833Z" fill="#EA5143"/>
<path d="M369.216 85.2214C369.216 85.2214 372.924 80.2693 375.683 84.3611C378.441 88.4528 374.544 100.558 367.787 97.5968L369.216 85.2214Z" fill="#F97853"/>
<path d="M369.257 93.8632C369.507 93.8632 369.737 93.6932 369.807 93.443C370.856 89.7115 374.724 88.1908 374.754 88.1808C375.044 88.0708 375.194 87.7406 375.084 87.4405C374.974 87.1504 374.644 87.0003 374.345 87.1104C374.165 87.1804 369.907 88.8311 368.697 93.1329C368.617 93.433 368.787 93.7532 369.097 93.8332C369.157 93.8532 369.207 93.8632 369.257 93.8632Z" fill="#EA5143"/>
<path d="M373.162 91.9832C373.272 91.9832 373.372 91.9532 373.472 91.8932C373.742 91.7232 373.812 91.3732 373.642 91.1032C373.612 91.0632 372.932 90.0132 371.503 89.3732C371.213 89.2432 370.873 89.3732 370.754 89.6632C370.624 89.9532 370.754 90.2932 371.043 90.4132C372.153 90.9132 372.683 91.7132 372.693 91.7132C372.792 91.8832 372.972 91.9832 373.162 91.9832Z" fill="#EA5143"/>
<path d="M359.225 107.861V119.886C359.225 119.886 355.637 126.009 350.79 126.429C345.952 126.849 341.645 121.157 341.645 121.157V108.701L359.225 107.861Z" fill="#FFA681"/>
<path d="M359.225 107.861V113.203C355.977 116.815 350.2 117.715 341.645 116.455V108.711L359.225 107.861Z" fill="#F97853"/>
<path d="M371.897 76.9679C371.677 81.6399 371.227 87.4924 370.338 92.1644C370.118 93.3349 369.868 94.4254 369.588 95.4058C367.059 104.27 360.733 119.476 343.022 113.143C335.196 110.352 331.578 101.628 329.959 92.7547C328.859 86.7321 328.699 80.6495 328.779 76.2976C328.869 71.8557 331.288 67.8039 335.146 65.613C345.601 59.6804 356.635 61.8914 363.891 64.6826C368.928 66.6234 372.157 71.5756 371.897 76.9679Z" fill="#FFA681"/>
<path d="M342.503 86.7917C342.503 88.0719 341.844 89.1122 341.024 89.1122C340.205 89.1122 339.545 88.0719 339.545 86.7917C339.545 85.5114 340.205 84.4711 341.024 84.4711C341.834 84.4611 342.503 85.5014 342.503 86.7917Z" fill="#18315B"/>
<path d="M359.904 86.7412C359.904 88.0212 359.244 89.0612 358.424 89.0612C357.605 89.0612 356.945 88.0212 356.945 86.7412C356.945 85.4612 357.605 84.4212 358.424 84.4212C359.244 84.4112 359.904 85.4512 359.904 86.7412Z" fill="#18315B"/>
<path d="M363.244 78.7481C363.244 78.7481 358.586 76.9081 354.998 78.4581L355.358 80.4581C355.358 80.4581 360.625 80.0081 363.274 81.0881C363.514 80.3181 363.544 79.5381 363.244 78.7481Z" fill="#18315B"/>
<path d="M336.096 78.7483C336.096 78.7483 340.754 76.9083 344.342 78.4583L343.982 80.4583C343.982 80.4583 338.715 80.0083 336.066 81.0883C335.826 80.3183 335.786 79.5383 336.096 78.7483Z" fill="#18315B"/>
<path d="M350.289 96.5363C351.249 96.5363 352.208 96.1562 352.358 96.0962C352.648 95.9761 352.788 95.646 352.668 95.3558C352.548 95.0657 352.218 94.9256 351.928 95.0457C351.409 95.2558 350.179 95.5859 349.64 95.2658C349.54 95.2058 349.39 95.0757 349.36 94.7356C349.15 92.7447 349.7 86.0518 349.71 85.9818C349.739 85.6717 349.5 85.3916 349.19 85.3615C348.87 85.3315 348.6 85.5716 348.57 85.8818C348.55 86.1619 348.01 92.7447 348.23 94.8456C348.31 95.636 348.73 96.0361 349.06 96.2362C349.42 96.4563 349.849 96.5363 350.289 96.5363Z" fill="#F97853"/>
<path d="M342.621 99.4376C343.571 102.739 346.269 106.02 349.987 106.07C353.695 106.02 356.394 102.739 357.343 99.4376H342.621Z" fill="white"/>
<path d="M349.668 109.651C351.147 109.651 352.396 108.901 352.446 108.871C352.716 108.711 352.806 108.361 352.636 108.091C352.476 107.821 352.126 107.731 351.857 107.901C351.847 107.911 350.817 108.521 349.668 108.521C348.608 108.521 347.599 107.911 347.589 107.911C347.319 107.741 346.969 107.831 346.799 108.101C346.629 108.371 346.719 108.721 346.989 108.891C347.039 108.901 348.278 109.651 349.668 109.651Z" fill="#F97853"/>
<path d="M371.3 85.3214H368.712C369.001 82.7203 369.411 78.1384 367.272 77.4881C360.526 75.4172 369.271 70.6451 366.223 68.2641C363.184 65.8831 355.608 66.9035 350.341 66.7335C345.044 66.5634 336.518 66.6334 334.459 67.1136C332.39 67.5838 333.52 71.0353 334.279 73.6965C335.049 76.3576 331.741 79.3089 331.181 82.07C331.021 82.8604 331.051 84.0409 331.181 85.3114H329.022C328.762 81.95 328.732 78.8287 328.772 76.2876C328.862 71.8457 331.281 67.7939 335.139 65.603C345.594 59.6704 356.628 61.8814 363.884 64.6726C368.921 66.6134 372.15 71.5655 371.89 76.9579C371.78 79.529 371.59 82.4402 371.3 85.3214Z" fill="#18315B"/>
<path d="M340.763 93.5251C337.195 93.5251 334.297 90.6238 334.297 87.0523C334.297 83.4808 337.195 80.5796 340.763 80.5796C344.332 80.5796 347.23 83.4808 347.23 87.0523C347.22 90.6138 344.322 93.5251 340.763 93.5251ZM340.763 81.59C337.755 81.59 335.306 84.041 335.306 87.0523C335.306 90.0636 337.755 92.5147 340.763 92.5147C343.772 92.5147 346.221 90.0636 346.221 87.0523C346.221 84.041 343.772 81.59 340.763 81.59Z" fill="white"/>
<path d="M358.426 93.5251C354.857 93.5251 351.959 90.6238 351.959 87.0523C351.959 83.4808 354.857 80.5796 358.426 80.5796C361.994 80.5796 364.892 83.4808 364.892 87.0523C364.892 90.6138 361.994 93.5251 358.426 93.5251ZM358.426 81.59C355.417 81.59 352.968 84.041 352.968 87.0523C352.968 90.0636 355.417 92.5147 358.426 92.5147C361.434 92.5147 363.883 90.0636 363.883 87.0523C363.883 84.041 361.434 81.59 358.426 81.59Z" fill="white"/>
<path d="M335.388 84.9696C335.258 84.9696 335.128 84.9196 335.028 84.8196C334.998 84.7896 332.06 81.9395 328.212 82.8396C327.942 82.8996 327.672 82.7295 327.602 82.4595C327.542 82.1895 327.712 81.9195 327.982 81.8495C332.389 80.8195 335.608 83.9596 335.738 84.0996C335.938 84.2996 335.938 84.6196 335.738 84.8096C335.648 84.9196 335.518 84.9696 335.388 84.9696Z" fill="white"/>
<path d="M363.923 84.9695C363.763 84.9695 363.594 84.8895 363.504 84.7395C363.354 84.5095 363.414 84.1895 363.654 84.0395C363.843 83.9095 368.421 80.9596 372.309 81.5995C372.579 81.6495 372.769 81.8995 372.729 82.1795C372.679 82.4495 372.429 82.6395 372.149 82.5995C368.651 82.0195 364.253 84.8595 364.203 84.8895C364.113 84.9395 364.013 84.9695 363.923 84.9695Z" fill="white"/>
<path d="M352.319 85.5996C352.309 85.5796 351.11 83.9596 349.541 83.9596C347.982 83.9596 346.902 85.5796 346.892 85.5896L346.053 85.0396C346.113 84.9496 347.442 82.9496 349.551 82.9496C351.65 82.9496 353.089 84.9196 353.149 84.9996L352.319 85.5996Z" fill="white"/>
<path d="M313.847 178.742C313.847 178.742 307.041 191.937 299.025 202.392C296.656 205.473 294.187 208.324 291.759 210.515C287.821 214.077 283.973 215.938 280.844 214.357C269.23 208.495 243.344 161.864 243.344 161.864L249.72 154.291C249.72 154.291 261.244 167.607 269.67 175.58C277.446 182.934 283.413 188.426 283.413 188.426C284.492 186.785 285.632 184.994 286.831 183.094C288.1 181.073 289.41 178.942 290.749 176.741C300.454 160.794 311.218 141.656 311.218 141.656L313.847 178.742Z" fill="#FFA681"/>
<path d="M299.012 202.392C296.643 205.473 294.175 208.324 291.746 210.515L286.809 183.094C288.078 181.073 289.387 178.942 290.727 176.741L299.012 202.392Z" fill="#F97853"/>
<path d="M311.209 141.656L287.941 178.292L295.747 210.515L315.007 179.132C315.007 179.132 317.336 157.653 311.209 141.656Z" fill="#518FD2"/>
<path d="M281.946 323.654C280.286 314.43 278.647 304.036 277.158 293.941C276.828 291.71 276.508 289.489 276.199 287.308C275.009 278.945 273.94 271.041 273.08 264.479C272.75 261.987 272.46 259.686 272.191 257.636C271.361 251.083 270.871 247.021 270.871 247.021L234.12 248.412L197.26 247.021C197.26 247.021 196.31 255.074 194.791 266.74C194.511 268.86 194.221 271.101 193.901 273.442C193.082 279.565 192.152 286.328 191.143 293.251C191.133 293.351 191.113 293.451 191.093 293.551C190.773 295.712 190.463 297.883 190.123 300.054C190.123 300.084 190.113 300.114 190.113 300.144C189.324 305.396 188.494 310.638 187.655 315.681C187.305 317.762 186.955 319.812 186.605 321.803C186.495 322.424 186.385 323.034 186.275 323.644H281.946V323.654Z" fill="#518FD2"/>
<path d="M205.737 258.066C205.737 259.977 204.188 261.537 202.269 261.537C200.36 261.537 198.801 259.987 198.801 258.066C198.801 256.155 200.35 254.594 202.269 254.594C204.188 254.604 205.737 256.155 205.737 258.066Z" fill="#91B3FA"/>
<path d="M214.331 271.502C214.331 273.412 212.782 274.973 210.863 274.973C208.954 274.973 207.395 273.422 207.395 271.502C207.395 269.591 208.944 268.03 210.863 268.03C212.782 268.03 214.331 269.581 214.331 271.502Z" fill="#91B3FA"/>
<path d="M231.241 264.569C231.241 266.479 229.692 268.04 227.773 268.04C225.864 268.04 224.305 266.489 224.305 264.569C224.305 262.658 225.854 261.097 227.773 261.097C229.682 261.097 231.241 262.648 231.241 264.569Z" fill="#91B3FA"/>
<path d="M204.546 285.758C204.546 287.669 202.996 289.229 201.078 289.229C199.169 289.229 197.609 287.679 197.609 285.758C197.609 283.847 199.159 282.286 201.078 282.286C202.996 282.296 204.546 283.847 204.546 285.758Z" fill="#91B3FA"/>
<path d="M225.675 284.277C225.675 286.188 224.125 287.749 222.206 287.749C220.297 287.749 218.738 286.198 218.738 284.277C218.738 282.356 220.287 280.806 222.206 280.806C224.125 280.816 225.675 282.366 225.675 284.277Z" fill="#91B3FA"/>
<path d="M197.041 269.991C197.041 271.792 195.661 273.282 193.902 273.442C194.212 271.101 194.512 268.86 194.792 266.74C196.111 267.23 197.041 268.5 197.041 269.991Z" fill="#91B3FA"/>
<path d="M260.118 304.646C260.118 306.557 258.569 308.117 256.65 308.117C254.741 308.117 253.182 306.567 253.182 304.646C253.182 302.735 254.731 301.174 256.65 301.174C258.569 301.184 260.118 302.735 260.118 304.646Z" fill="#91B3FA"/>
<path d="M258.477 285.758C258.477 287.669 256.928 289.229 255.009 289.229C253.1 289.229 251.541 287.679 251.541 285.758C251.541 283.847 253.09 282.286 255.009 282.286C256.928 282.296 258.477 283.847 258.477 285.758Z" fill="#91B3FA"/>
<path d="M277.157 293.941C276.738 294.121 276.278 294.211 275.798 294.211C273.889 294.211 272.34 292.661 272.34 290.75C272.34 288.839 273.889 287.288 275.798 287.288C275.938 287.288 276.068 287.298 276.198 287.318C276.508 289.489 276.828 291.71 277.157 293.941Z" fill="#91B3FA"/>
<path d="M261.946 318.492C261.946 320.403 260.397 321.963 258.478 321.963C256.569 321.963 255.01 320.413 255.01 318.492C255.01 316.581 256.559 315.02 258.478 315.02C260.387 315.02 261.946 316.571 261.946 318.492Z" fill="#91B3FA"/>
<path d="M276.759 312.959C276.759 314.87 275.209 316.431 273.29 316.431C271.381 316.431 269.822 314.88 269.822 312.959C269.822 311.049 271.371 309.488 273.29 309.488C275.209 309.488 276.759 311.039 276.759 312.959Z" fill="#91B3FA"/>
<path d="M245.926 323.653C245.306 322.743 244.257 322.143 243.068 322.143C241.878 322.143 240.839 322.743 240.209 323.653H245.926Z" fill="#91B3FA"/>
<path d="M202.266 307.667C202.266 309.578 200.717 311.139 198.798 311.139C196.889 311.139 195.33 309.588 195.33 307.667C195.33 305.756 196.879 304.196 198.798 304.196C200.717 304.196 202.266 305.746 202.266 307.667Z" fill="#91B3FA"/>
<path d="M193.133 296.712C193.133 298.473 191.824 299.924 190.125 300.144C190.135 300.114 190.135 300.084 190.135 300.054C190.465 297.883 190.785 295.712 191.104 293.551C192.294 294.101 193.133 295.312 193.133 296.712Z" fill="#91B3FA"/>
<path d="M189.084 318.482C189.084 320.052 188.045 321.373 186.615 321.803C186.965 319.812 187.315 317.761 187.665 315.681C188.524 316.321 189.084 317.341 189.084 318.482Z" fill="#91B3FA"/>
<path d="M210.862 319.952C210.862 321.863 209.313 323.424 207.394 323.424C205.485 323.424 203.926 321.873 203.926 319.952C203.926 318.032 205.475 316.481 207.394 316.481C209.313 316.491 210.862 318.042 210.862 319.952Z" fill="#91B3FA"/>
<path d="M229.144 317.241C229.144 319.152 227.594 320.713 225.675 320.713C223.756 320.713 222.207 319.162 222.207 317.241C222.207 315.33 223.756 313.77 225.675 313.77C227.594 313.77 229.144 315.32 229.144 317.241Z" fill="#91B3FA"/>
<path d="M216.098 300.194C216.098 302.105 214.549 303.665 212.63 303.665C210.721 303.665 209.162 302.115 209.162 300.194C209.162 298.283 210.711 296.722 212.63 296.722C214.549 296.722 216.098 298.283 216.098 300.194Z" fill="#91B3FA"/>
<path d="M234.702 296.722C234.702 298.633 233.153 300.194 231.234 300.194C229.325 300.194 227.766 298.643 227.766 296.722C227.766 294.802 229.315 293.251 231.234 293.251C233.153 293.261 234.702 294.812 234.702 296.722Z" fill="#91B3FA"/>
<path d="M243.075 278.435C243.075 280.345 241.526 281.906 239.607 281.906C237.698 281.906 236.139 280.355 236.139 278.435C236.139 276.524 237.688 274.963 239.607 274.963C241.526 274.963 243.075 276.514 243.075 278.435Z" fill="#91B3FA"/>
<path d="M273.079 264.477C272.839 264.537 272.589 264.557 272.339 264.557C270.42 264.557 268.881 263.007 268.881 261.096C268.881 259.235 270.35 257.704 272.199 257.634C272.459 259.685 272.749 261.986 273.079 264.477Z" fill="#91B3FA"/>
<path d="M255.02 264.569C255.02 266.479 253.471 268.04 251.552 268.04C249.643 268.04 248.084 266.489 248.084 264.569C248.084 262.658 249.633 261.097 251.552 261.097C253.461 261.097 255.02 262.648 255.02 264.569Z" fill="#91B3FA"/>
<path d="M267.704 276.924C267.704 278.835 266.155 280.395 264.236 280.395C262.317 280.395 260.768 278.845 260.768 276.924C260.768 275.013 262.317 273.452 264.236 273.452C266.155 273.452 267.704 275.003 267.704 276.924Z" fill="#91B3FA"/>
<path d="M246.536 307.667C246.536 309.578 244.987 311.139 243.068 311.139C241.159 311.139 239.6 309.588 239.6 307.667C239.6 305.756 241.149 304.196 243.068 304.196C244.987 304.196 246.536 305.746 246.536 307.667Z" fill="#91B3FA"/>
<path d="M273.109 247.931C253.72 260.597 218.128 259.606 195.76 247.931C197.899 234.606 200.707 221.27 200.107 203.542C200.038 201.602 199.958 199.671 199.858 197.75C199.768 196.089 199.678 194.428 199.568 192.798C197.639 163.295 192.611 139.175 195.08 136.063C196.16 134.703 197.959 133.222 200.177 131.721C201.047 131.131 201.977 130.521 202.966 129.921C205.285 128.5 207.863 127.079 210.462 125.679C216.609 122.397 222.856 119.346 225.984 117.265C229.082 118.616 231.561 119.356 234.22 119.346C234.29 119.346 234.37 119.346 234.45 119.336C234.52 119.346 234.599 119.346 234.669 119.346C237.328 119.356 239.807 118.616 242.905 117.265C245.804 119.196 251.271 121.897 256.848 124.829C260.946 126.989 265.104 129.28 268.342 131.511C270.461 132.962 272.19 134.393 273.249 135.733C274.469 137.274 273.959 144.057 272.909 154.091C271.87 163.965 270.321 177.011 269.381 191.337C269.121 195.319 268.912 199.401 268.762 203.532C268.162 221.27 270.971 234.606 273.109 247.931Z" fill="#009CF8"/>
<path d="M261.255 233.195C261.255 233.195 261.245 233.195 261.255 233.195C245.643 233.125 232.31 226.012 223.885 220.06C214.77 213.617 209.242 207.094 209.193 207.034C208.923 206.714 208.963 206.244 209.282 205.974C209.602 205.703 210.072 205.743 210.342 206.064C210.392 206.124 215.819 212.526 224.784 218.859C233.03 224.682 246.053 231.625 261.255 231.695C261.675 231.695 262.005 232.035 262.005 232.445C262.005 232.865 261.665 233.195 261.255 233.195Z" fill="#518FD2"/>
<path d="M250.921 224.101C237.628 221.49 225.864 211.296 225.324 210.826C225.014 210.555 224.984 210.075 225.254 209.765C225.524 209.455 226.004 209.425 226.314 209.695C226.454 209.815 240.297 221.8 254.409 223.091C254.829 223.121 255.129 223.491 255.089 223.911C255.049 224.321 254.689 224.631 254.269 224.591C253.15 224.481 252.03 224.321 250.921 224.101Z" fill="#518FD2"/>
<path d="M231.24 155.262C230.89 155.262 230.57 155.011 230.5 154.651C230.42 154.241 230.69 153.851 231.1 153.771C250.13 150.159 255.867 137.904 255.927 137.774C256.097 137.394 256.547 137.224 256.917 137.394C257.296 137.564 257.466 138.014 257.296 138.384C257.057 138.915 251.18 151.48 231.38 155.242C231.33 155.262 231.28 155.262 231.24 155.262Z" fill="#518FD2"/>
<path d="M256.839 124.829C253.061 133.452 243.776 142.386 231.692 140.295C219.998 138.274 214.451 132.082 210.443 125.679C216.59 122.387 222.837 119.346 225.965 117.265C229.064 118.616 231.542 119.356 234.201 119.346C234.271 119.346 234.351 119.346 234.431 119.336C234.501 119.346 234.581 119.346 234.661 119.346C237.319 119.356 239.798 118.616 242.896 117.265C245.805 119.186 251.272 121.887 256.839 124.829Z" fill="#FFA681"/>
<path d="M246.745 117.895C246.415 117.895 246.145 118.155 246.145 118.486C246.145 118.966 245.945 130.371 235.721 131.251C226.236 132.071 222.308 122.987 221.098 119.216C221.028 118.996 220.818 118.846 220.589 118.846H220.479C220.119 118.846 219.859 119.206 219.969 119.546C221.258 123.438 225.396 132.832 235.061 132.482C235.311 132.472 235.571 132.462 235.821 132.432C247.135 131.451 247.334 118.606 247.334 118.476C247.344 118.165 247.075 117.895 246.745 117.895Z" fill="white"/>
<path d="M253.968 57.2893C253.968 57.2893 263.104 71.4554 262.104 86.2117C261.105 100.968 263.454 118.005 250.26 117.255C237.067 116.505 213.539 122.547 206.053 111.052C198.577 99.5675 253.968 57.2893 253.968 57.2893Z" fill="#18315B"/>
<path d="M257.356 83.3406C257.356 83.3406 259.725 104.73 249.59 110.622C239.446 116.515 232.109 109.932 232.109 109.932C232.109 109.932 253.488 80.1192 257.356 83.3406Z" fill="#000B29"/>
<path d="M215.239 83.2406C215.239 83.2406 211.601 78.3785 208.892 82.4002C206.183 86.422 210.011 98.2871 216.638 95.3859L215.239 83.2406Z" fill="#F97853"/>
<path d="M215.19 91.7222C214.95 91.7222 214.72 91.5622 214.65 91.3121C213.621 87.6506 209.833 86.1599 209.793 86.1499C209.503 86.0399 209.363 85.7198 209.473 85.4296C209.583 85.1395 209.903 84.9995 210.193 85.0995C210.372 85.1695 214.55 86.7902 215.73 91.0119C215.81 91.3121 215.64 91.6222 215.34 91.7022C215.29 91.7122 215.24 91.7222 215.19 91.7222Z" fill="#EA5143"/>
<path d="M211.36 89.8723C211.26 89.8723 211.15 89.8423 211.06 89.7823C210.8 89.6123 210.72 89.2723 210.89 89.0123C210.92 88.9723 211.59 87.9423 212.989 87.3123C213.269 87.1823 213.599 87.3123 213.729 87.5923C213.859 87.8723 213.729 88.2023 213.449 88.3323C212.36 88.8223 211.84 89.6023 211.83 89.6123C211.72 89.7824 211.54 89.8723 211.36 89.8723Z" fill="#EA5143"/>
<path d="M252.757 83.2406C252.757 83.2406 256.395 78.3785 259.103 82.4002C261.812 86.422 257.984 98.2871 251.357 95.3859L252.757 83.2406Z" fill="#F97853"/>
<path d="M252.807 91.7222C253.057 91.7222 253.277 91.5622 253.347 91.3121C254.377 87.6506 258.165 86.1599 258.205 86.1499C258.494 86.0399 258.634 85.7198 258.524 85.4296C258.415 85.1395 258.095 84.9995 257.805 85.0995C257.625 85.1695 253.447 86.7902 252.268 91.0119C252.188 91.3121 252.358 91.6222 252.658 91.7022C252.708 91.7122 252.758 91.7222 252.807 91.7222Z" fill="#EA5143"/>
<path d="M256.634 89.8723C256.734 89.8723 256.844 89.8423 256.934 89.7823C257.194 89.6123 257.274 89.2723 257.104 89.0123C257.074 88.9723 256.404 87.9423 255.005 87.3123C254.725 87.1823 254.395 87.3123 254.265 87.5923C254.136 87.8723 254.265 88.2023 254.545 88.3323C255.635 88.8223 256.154 89.6023 256.164 89.6123C256.264 89.7824 256.444 89.8723 256.634 89.8723Z" fill="#EA5143"/>
<path d="M242.962 105.46V117.265C242.962 117.265 239.444 123.278 234.686 123.688C229.939 124.098 225.711 118.516 225.711 118.516V106.301L242.962 105.46Z" fill="#FFA681"/>
<path d="M242.964 105.46V110.702C239.775 114.244 234.108 115.505 225.723 114.264V106.291L242.964 105.46Z" fill="#F97853"/>
<path d="M255.4 75.1472C255.18 79.7291 254.74 85.4716 253.87 90.0536C253.651 91.1941 253.401 92.2745 253.131 93.235C250.652 101.929 244.445 116.845 227.065 110.632C219.389 107.891 215.83 99.3376 214.251 90.6338C213.172 84.7213 213.012 78.7487 213.092 74.4869C213.172 70.135 215.551 66.1533 219.339 64.0023C229.593 58.1798 240.418 60.3508 247.544 63.092C252.481 64.9928 255.65 69.8549 255.4 75.1472Z" fill="#FFA681"/>
<path d="M226.342 83.9299C226.342 85.1899 225.692 86.2099 224.893 86.2099C224.093 86.2099 223.443 85.1899 223.443 83.9299C223.443 82.6699 224.093 81.6499 224.893 81.6499C225.692 81.6499 226.342 82.6699 226.342 83.9299Z" fill="#18315B"/>
<path d="M244.242 83.9299C244.242 85.1899 243.593 86.2099 242.793 86.2099C241.993 86.2099 241.344 85.1899 241.344 83.9299C241.344 82.6699 241.993 81.6499 242.793 81.6499C243.593 81.6499 244.242 82.6699 244.242 83.9299Z" fill="#18315B"/>
<path d="M222.025 77.1375C223.224 76.7975 225.663 76.2175 228.222 76.2075C228.901 76.2075 229.411 76.8075 229.291 77.4675V77.4875C229.191 78.0175 228.721 78.3975 228.182 78.3675C226.433 78.2875 221.855 78.5275 219.696 79.4075C219.656 79.0275 219.876 78.6175 220.186 78.2575C220.666 77.7075 221.325 77.3375 222.025 77.1375Z" fill="#18315B"/>
<path d="M245.442 77.1876C244.242 76.8476 241.804 76.2676 239.245 76.2576C238.575 76.2576 238.056 76.8576 238.175 77.5176V77.5376C238.275 78.0676 238.745 78.4476 239.285 78.4176C241.034 78.3376 245.612 78.5776 247.77 79.4576C247.81 79.0776 247.591 78.6676 247.281 78.3076C246.791 77.7576 246.141 77.3876 245.442 77.1876Z" fill="#18315B"/>
<path d="M234.188 94.3454C233.759 94.3454 233.329 94.2654 232.969 94.0553C232.639 93.8552 232.239 93.465 232.149 92.6847C231.94 90.6238 232.459 84.161 232.489 83.8909C232.519 83.5808 232.789 83.3507 233.089 83.3807C233.399 83.4107 233.629 83.6808 233.599 83.9809C233.589 84.051 233.059 90.6138 233.259 92.5647C233.299 92.9048 233.429 93.0249 233.539 93.0849C234.068 93.405 235.278 93.0749 235.787 92.8748C236.077 92.7547 236.397 92.8948 236.517 93.1849C236.637 93.475 236.497 93.7952 236.207 93.9152C236.077 93.9753 235.138 94.3454 234.188 94.3454Z" fill="#F97853"/>
<path d="M227.082 97.887C227.502 100.018 228.911 103.94 233.659 103.94C238.416 103.94 239.745 100.358 240.205 97.887H227.082Z" fill="white"/>
<path d="M233.58 107.21C232.211 107.21 231.002 106.47 230.952 106.44C230.692 106.28 230.612 105.93 230.772 105.67C230.932 105.41 231.282 105.33 231.541 105.49C231.551 105.5 232.541 106.09 233.58 106.09C234.71 106.09 235.719 105.49 235.729 105.49C235.999 105.33 236.339 105.42 236.499 105.68C236.659 105.94 236.579 106.29 236.309 106.45C236.269 106.48 235.04 107.21 233.58 107.21Z" fill="#F97853"/>
<path d="M257.646 74.2267C257.466 74.7369 256.966 75.0671 256.297 75.2571C256.347 76.4977 256.217 77.9783 256.097 79.4089C255.407 87.5124 253.358 88.933 252.898 86.9321C252.599 85.6016 252.609 77.9683 252.758 75.4772C251.159 75.3672 249.79 75.1071 249.79 75.1071L247.911 67.2437L247.251 75.017C244.433 75.9974 237.866 74.4268 237.866 74.4268L235.657 66.6735L234.298 74.1367C230.07 76.1975 224.793 74.827 224.793 74.827L223.584 66.7735L220.785 74.827C220.785 74.827 211.77 78.0683 211.67 74.827C211.61 72.9462 212.989 67.6439 214.149 63.5321C215.418 59.0502 218.356 55.2686 222.334 53.1277C233.518 47.1251 245.342 50.3165 249.39 52.7375C258.006 57.8697 257.646 74.2267 257.646 74.2267Z" fill="#18315B"/>
<path d="M216.638 57.8896C216.638 57.8896 209.222 66.7235 206.774 82.5002C204.335 98.277 200.957 109.932 210.452 115.144C220.736 120.787 219.847 109.222 219.697 106.07C219.547 102.929 210.801 94.3353 216.638 70.1449C218.517 62.3316 216.638 57.8896 216.638 57.8896Z" fill="#18315B"/>
<path d="M214.9 90.4938C214.9 90.4938 214.9 90.5038 214.9 90.5138C214.9 90.6338 214.91 91.2541 214.96 92.2345C214.98 92.8448 215.02 93.5851 215.08 94.4255C215.43 99.7377 216.46 108.922 219.498 112.103C220.697 113.364 223.006 113.994 225.725 114.254V110.082C222.856 108.722 220.627 106.481 218.888 103.729C217.819 101.408 215.97 97.7769 215.11 92.0645L214.9 90.4938Z" fill="#000B29"/>
<path d="M255.527 95.6553C255.527 96.3853 254.937 96.9653 254.218 96.9653C253.498 96.9653 252.908 96.3753 252.908 95.6553C252.908 94.9253 253.498 94.3453 254.218 94.3453C254.937 94.3453 255.527 94.9353 255.527 95.6553Z" fill="white"/>
<path d="M282.277 194.619C278.559 205.273 261.907 204.493 242.947 198.67C242.917 198.66 242.897 198.65 242.867 198.64C242.807 198.62 242.747 198.6 242.687 198.59L240.079 197.76C239.719 197.64 239.359 197.52 238.999 197.4C236.96 196.719 234.901 195.979 232.833 195.189C226.056 192.618 219.23 189.556 212.793 186.305L212.833 186.195L214.772 181.153L215.432 179.442C215.432 179.442 250.583 183.274 268.264 179.572C268.564 179.512 268.854 179.452 269.144 179.382C269.074 178.992 269.054 178.592 268.944 178.211C259.579 146.298 269.823 140.175 273.251 135.723C273.241 135.723 289.293 174.51 282.277 194.619Z" fill="#009CF8"/>
<path d="M276.549 184.744C276.439 184.794 276.329 184.814 276.22 184.814C275.94 184.814 275.68 184.664 275.55 184.394C274.211 181.653 269.663 180.012 268.264 179.572C268.564 179.512 268.853 179.452 269.143 179.382C269.073 178.992 269.003 178.602 268.943 178.211C270.722 178.802 275.36 180.592 276.899 183.744C277.079 184.114 276.919 184.564 276.549 184.744Z" fill="#518FD2"/>
<path d="M227.316 183.402C220.139 183.402 214.312 182.992 213.813 182.952C213.403 182.922 213.093 182.562 213.123 182.152C213.153 181.742 213.513 181.432 213.923 181.462C214.193 181.482 240.559 183.352 250.953 179.132C251.333 178.972 251.773 179.162 251.933 179.542C252.093 179.922 251.903 180.362 251.523 180.522C245.756 182.852 235.631 183.402 227.316 183.402Z" fill="#518FD2"/>
<path d="M240.08 197.76C246.097 196.099 251.564 194.478 254.722 193.468C259.11 192.057 262.738 187.626 264.387 183.854C264.557 183.474 264.997 183.304 265.377 183.464C265.757 183.634 265.927 184.074 265.767 184.454C263.988 188.536 260.02 193.348 255.192 194.899C252.903 195.639 249.405 196.689 245.357 197.84C243.618 198.33 241.789 198.31 240.08 197.76Z" fill="#518FD2"/>
<path d="M256.301 192.597C201.97 210.915 185.258 198.93 185.258 198.93C181.6 165.826 195.083 136.053 195.083 136.053C199.061 142.626 203.569 154.091 203.569 154.091L204.758 179.472L204.668 180.172L204.628 180.502L204.408 182.233L204.398 182.263C204.518 182.293 204.628 182.313 204.748 182.343C221.18 185.815 251.234 181.933 251.234 181.933L256.301 192.597Z" fill="#009CF8"/>
<path d="M204.737 182.353C201.808 184.814 199.02 187.646 196.531 190.907C196.281 191.237 195.811 191.297 195.481 191.047C195.152 190.797 195.092 190.327 195.331 189.997C198.12 186.325 201.288 183.184 204.607 180.502L204.387 182.233L204.377 182.263C204.507 182.303 204.617 182.333 204.737 182.353Z" fill="#518FD2"/>
<path d="M251.223 181.953C251.223 181.953 257.24 168.277 266.385 169.498L269.143 179.382C264.136 181.513 263.406 190.097 256.3 192.608L251.223 181.953Z" fill="#FFA681"/>
<path d="M215.441 179.432C215.441 179.432 211.643 170.508 201.648 167.917C191.653 165.326 185.287 170.038 184.607 171.819C183.938 173.6 188.375 171.899 188.375 171.899C188.375 171.899 185.487 172.719 183.828 175.44C182.168 178.162 187.865 175.23 187.865 175.23C187.865 175.23 183.778 177.021 183.258 178.682C182.738 180.342 188.125 177.531 189.145 177.591C189.145 177.591 184.337 179.502 184.367 181.223C184.397 182.934 189.894 180.142 194.002 180.363C198.11 180.583 204.397 182.283 204.397 182.283C207.755 182.924 210.963 183.394 213.872 183.534L215.441 179.432Z" fill="#FFA681"/>
<path d="M311.972 40.6823C308.274 40.6823 305.266 37.6711 305.266 33.9695C305.266 30.2679 308.274 27.2566 311.972 27.2566C315.67 27.2566 318.679 30.2679 318.679 33.9695C318.679 37.6711 315.67 40.6823 311.972 40.6823ZM311.972 29.3575C309.433 29.3575 307.365 31.4284 307.365 33.9695C307.365 36.5106 309.433 38.5814 311.972 38.5814C314.511 38.5814 316.58 36.5106 316.58 33.9695C316.57 31.4284 314.511 29.3575 311.972 29.3575Z" fill="#518FD2"/>
<path d="M370.511 29.2674C366.813 29.2674 363.805 26.2561 363.805 22.5545C363.805 18.8529 366.813 15.8416 370.511 15.8416C374.209 15.8416 377.218 18.8529 377.218 22.5545C377.218 26.2561 374.209 29.2674 370.511 29.2674ZM370.511 17.9425C367.972 17.9425 365.904 20.0134 365.904 22.5545C365.904 25.0956 367.972 27.1665 370.511 27.1665C373.05 27.1665 375.119 25.0956 375.119 22.5545C375.119 20.0134 373.05 17.9425 370.511 17.9425Z" fill="#009CF8"/>
<path d="M378.809 51.0967C378.23 51.0967 377.76 50.6265 377.76 50.0462V45.4042C377.76 44.824 378.23 44.3538 378.809 44.3538C379.389 44.3538 379.859 44.824 379.859 45.4042V50.0462C379.859 50.6265 379.389 51.0967 378.809 51.0967Z" fill="#518FD2"/>
<path d="M378.809 59.2302C378.23 59.2302 377.76 58.76 377.76 58.1798V53.5377C377.76 52.9575 378.23 52.4873 378.809 52.4873C379.389 52.4873 379.859 52.9575 379.859 53.5377V58.1798C379.859 58.76 379.389 59.2302 378.809 59.2302Z" fill="#518FD2"/>
<path d="M385.315 52.8364H381.147C380.567 52.8364 380.098 52.3664 380.098 51.7864C380.098 51.2064 380.567 50.7365 381.147 50.7365H385.315C385.895 50.7365 386.364 51.2064 386.364 51.7864C386.374 52.3664 385.905 52.8364 385.315 52.8364Z" fill="#518FD2"/>
<path d="M376.459 52.8364H372.292C371.712 52.8364 371.242 52.3664 371.242 51.7864C371.242 51.2064 371.712 50.7365 372.292 50.7365H376.459C377.039 50.7365 377.509 51.2064 377.509 51.7864C377.509 52.3664 377.039 52.8364 376.459 52.8364Z" fill="#518FD2"/>
<path d="M343.358 22.9545C342.778 22.9545 342.309 22.4843 342.309 21.904V17.262C342.309 16.6817 342.778 16.2115 343.358 16.2115C343.938 16.2115 344.407 16.6817 344.407 17.262V21.904C344.417 22.4843 343.938 22.9545 343.358 22.9545Z" fill="#1C31B5"/>
<path d="M343.358 31.0781C342.778 31.0781 342.309 30.6079 342.309 30.0277V25.3857C342.309 24.8054 342.778 24.3352 343.358 24.3352C343.938 24.3352 344.407 24.8054 344.407 25.3857V30.0277C344.417 30.6079 343.938 31.0781 343.358 31.0781Z" fill="#1C31B5"/>
<path d="M349.873 24.6945H345.706C345.126 24.6945 344.656 24.2245 344.656 23.6445C344.656 23.0645 345.126 22.5945 345.706 22.5945H349.873C350.453 22.5945 350.923 23.0645 350.923 23.6445C350.933 24.2245 350.453 24.6945 349.873 24.6945Z" fill="#1C31B5"/>
<path d="M341.018 24.6945H336.85C336.271 24.6945 335.801 24.2245 335.801 23.6445C335.801 23.0645 336.271 22.5945 336.85 22.5945H341.018C341.598 22.5945 342.068 23.0645 342.068 23.6445C342.068 24.2245 341.598 24.6945 341.018 24.6945Z" fill="#1C31B5"/>
<path d="M72.125 16.9218C72.125 13.2202 75.1334 10.2089 78.8315 10.2089C82.5296 10.2089 85.5381 13.2202 85.5381 16.9218C85.5381 20.6234 82.5296 23.6346 78.8315 23.6346C75.1334 23.6447 72.125 20.6234 72.125 16.9218ZM74.2239 16.9218C74.2239 19.4629 76.2929 21.5337 78.8315 21.5337C81.3702 21.5337 83.4392 19.4629 83.4392 16.9218C83.4392 14.3807 81.3702 12.3098 78.8315 12.3098C76.2929 12.3098 74.2239 14.3807 74.2239 16.9218Z" fill="#518FD2"/>
<path d="M45.1816 42.523C45.1816 38.8214 48.1901 35.8101 51.8882 35.8101C55.5863 35.8101 58.5947 38.8214 58.5947 42.523C58.5947 46.2246 55.5863 49.2359 51.8882 49.2359C48.1901 49.2459 45.1816 46.2246 45.1816 42.523ZM47.2806 42.523C47.2806 45.0641 49.3495 47.135 51.8882 47.135C54.4269 47.135 56.4958 45.0641 56.4958 42.523C56.4958 39.9819 54.4269 37.911 51.8882 37.911C49.3495 37.911 47.2806 39.9819 47.2806 42.523Z" fill="#009CF8"/>
<path d="M31.2291 51.9472C31.8088 51.9472 32.2786 51.477 32.2786 50.8968V46.2548C32.2786 45.6745 31.8088 45.2043 31.2291 45.2043C30.6494 45.2043 30.1797 45.6745 30.1797 46.2548V50.8968C30.1797 51.477 30.6494 51.9472 31.2291 51.9472Z" fill="#518FD2"/>
<path d="M31.2291 60.0807C31.8088 60.0807 32.2786 59.6105 32.2786 59.0303V54.3882C32.2786 53.808 31.8088 53.3378 31.2291 53.3378C30.6494 53.3378 30.1797 53.808 30.1797 54.3882V59.0303C30.1797 59.6105 30.6494 60.0807 31.2291 60.0807Z" fill="#518FD2"/>
<path d="M24.7116 53.6971H28.8794C29.4591 53.6971 29.9288 53.227 29.9288 52.647C29.9288 52.067 29.4591 51.597 28.8794 51.597H24.7116C24.1319 51.597 23.6621 52.067 23.6621 52.647C23.6621 53.217 24.1319 53.6971 24.7116 53.6971Z" fill="#518FD2"/>
<path d="M33.5789 53.6971H37.7467C38.3264 53.6971 38.7961 53.227 38.7961 52.647C38.7961 52.067 38.3264 51.597 37.7467 51.597H33.5789C32.9992 51.597 32.5295 52.067 32.5295 52.647C32.5195 53.217 32.9892 53.6971 33.5789 53.6971Z" fill="#518FD2"/>
<path d="M55.4772 16.2318C56.0569 16.2318 56.5266 15.7616 56.5266 15.1813V10.5393C56.5266 9.95909 56.0569 9.48889 55.4772 9.48889C54.8975 9.48889 54.4277 9.95909 54.4277 10.5393V15.1813C54.4277 15.7616 54.8975 16.2318 55.4772 16.2318Z" fill="#1C31B5"/>
<path d="M55.4772 24.3652C56.0569 24.3652 56.5266 23.895 56.5266 23.3148V18.6728C56.5266 18.0925 56.0569 17.6223 55.4772 17.6223C54.8975 17.6223 54.4277 18.0925 54.4277 18.6728V23.3148C54.4277 23.895 54.8975 24.3652 55.4772 24.3652Z" fill="#1C31B5"/>
<path d="M48.9695 17.9716H53.1374C53.7171 17.9716 54.1869 17.5016 54.1869 16.9216C54.1869 16.3416 53.7171 15.8716 53.1374 15.8716H48.9695C48.3898 15.8716 47.9201 16.3416 47.9201 16.9216C47.9101 17.5016 48.3798 17.9716 48.9695 17.9716Z" fill="#1C31B5"/>
<path d="M57.8248 17.9716H61.9927C62.5724 17.9716 63.0421 17.5016 63.0421 16.9216C63.0421 16.3416 62.5724 15.8716 61.9927 15.8716H57.8248C57.2451 15.8716 56.7754 16.3416 56.7754 16.9216C56.7754 17.5016 57.2451 17.9716 57.8248 17.9716Z" fill="#1C31B5"/>
<path d="M256.149 17.4013C256.029 17.4113 255.899 17.4013 255.779 17.3513C254.5 16.8113 253.75 16.5613 253.75 16.5613C253.361 16.4313 253.151 16.0113 253.281 15.6113C253.411 15.2213 253.83 15.0113 254.23 15.1413C254.26 15.1513 255.03 15.4113 256.369 15.9713C256.749 16.1313 256.929 16.5713 256.769 16.9513C256.649 17.2113 256.409 17.3813 256.149 17.4013Z" fill="#94D1EB"/>
<path d="M294.238 57.5295C294.747 58.8901 295.217 60.2907 295.657 61.6913C295.767 62.0414 296.097 62.2515 296.446 62.2115C296.496 62.2015 296.536 62.2015 296.586 62.1815C296.976 62.0614 297.206 61.6412 297.076 61.2511C296.636 59.8205 296.147 58.3898 295.627 57.0093C295.487 56.6191 295.057 56.429 294.667 56.5691C294.288 56.7091 294.088 57.1493 294.238 57.5295Z" fill="#94D1EB"/>
<path d="M296.815 65.9332C297.155 67.3338 297.465 68.7844 297.735 70.235C297.805 70.6252 298.164 70.8853 298.544 70.8453C298.564 70.8453 298.584 70.8453 298.604 70.8353C299.014 70.7552 299.274 70.3651 299.204 69.9649C298.934 68.4943 298.614 67.0136 298.264 65.583C298.164 65.1829 297.765 64.9328 297.365 65.0328C296.965 65.1228 296.715 65.533 296.815 65.9332Z" fill="#94D1EB"/>
<path d="M299.966 88.5229C300.336 88.4828 300.626 88.1727 300.636 87.7926C300.656 86.2919 300.646 84.7813 300.606 83.3207C300.596 82.9105 300.246 82.5803 299.836 82.6004C299.416 82.6104 299.096 82.9605 299.116 83.3707C299.156 84.8213 299.166 86.3019 299.146 87.7826C299.136 88.1927 299.466 88.5329 299.886 88.5429C299.906 88.5229 299.936 88.5229 299.966 88.5229Z" fill="#94D1EB"/>
<path d="M299.065 73.7366C298.656 73.7866 298.366 74.1668 298.426 74.577C298.516 75.2573 298.596 75.9376 298.666 76.6079C298.746 77.3782 298.816 78.1685 298.886 78.9589C298.916 79.3691 299.275 79.6792 299.685 79.6492C299.695 79.6492 299.695 79.6492 299.705 79.6492C300.105 79.6092 300.405 79.249 300.375 78.8488C300.315 78.0485 300.235 77.2481 300.155 76.4578C300.085 75.7775 300.005 75.0772 299.915 74.3869C299.865 73.9867 299.495 73.6966 299.095 73.7366C299.075 73.7366 299.065 73.7366 299.065 73.7366Z" fill="#94D1EB"/>
<path d="M292.569 53.4678C292.709 53.7679 293.018 53.938 293.328 53.908C293.408 53.898 293.478 53.878 293.558 53.8479C293.938 53.6779 294.108 53.2377 293.938 52.8575C293.328 51.4969 292.669 50.1363 291.979 48.8257C291.789 48.4556 291.339 48.3155 290.969 48.5156C290.6 48.7057 290.46 49.1559 290.66 49.526C291.329 50.8066 291.969 52.1372 292.569 53.4678Z" fill="#94D1EB"/>
<path d="M259.746 19.2113C261.026 19.8713 262.325 20.5813 263.594 21.3313C263.734 21.4213 263.894 21.4513 264.054 21.4313C264.284 21.4113 264.494 21.2813 264.624 21.0713C264.834 20.7113 264.714 20.2613 264.364 20.0513C263.065 19.2813 261.745 18.5513 260.436 17.8813C260.066 17.6913 259.616 17.8413 259.426 18.2113C259.237 18.5713 259.386 19.0213 259.746 19.2113Z" fill="#94D1EB"/>
<path d="M270.89 26.2545C271.049 26.3745 271.239 26.4245 271.419 26.4045C271.619 26.3845 271.809 26.2845 271.939 26.1145C272.189 25.7845 272.129 25.3145 271.799 25.0645C270.62 24.1645 269.39 23.2845 268.161 22.4445C267.821 22.2145 267.351 22.3045 267.122 22.6445C266.892 22.9845 266.982 23.4545 267.321 23.6845C268.521 24.5045 269.73 25.3645 270.89 26.2545Z" fill="#94D1EB"/>
<path d="M283.444 38.5014C283.614 38.7115 283.864 38.8015 284.104 38.7815C284.244 38.7715 284.373 38.7115 284.493 38.6214C284.813 38.3613 284.863 37.8911 284.613 37.571C283.684 36.4105 282.704 35.26 281.705 34.1595C281.425 33.8494 280.955 33.8293 280.645 34.1095C280.336 34.3896 280.315 34.8598 280.595 35.1699C281.575 36.2404 282.534 37.3709 283.444 38.5014Z" fill="#94D1EB"/>
<path d="M277.535 31.9967C277.705 32.1568 277.925 32.2267 278.135 32.2067C278.305 32.1867 278.464 32.1167 278.594 31.9867C278.884 31.6867 278.874 31.2167 278.584 30.9267C277.525 29.8967 276.406 28.8767 275.276 27.8967C274.966 27.6267 274.486 27.6667 274.227 27.9767C273.957 28.2867 273.997 28.7567 274.307 29.0267C275.406 29.9867 276.495 30.9867 277.535 31.9967Z" fill="#94D1EB"/>
<path d="M288.492 45.6944C288.652 45.9445 288.932 46.0746 289.212 46.0446C289.322 46.0346 289.422 45.9946 289.522 45.9345C289.871 45.7144 289.981 45.2542 289.771 44.9041C288.992 43.6335 288.172 42.373 287.313 41.1525C287.073 40.8123 286.613 40.7323 286.273 40.9724C285.933 41.2125 285.853 41.6727 286.093 42.0128C286.923 43.2134 287.733 44.4539 288.492 45.6944Z" fill="#94D1EB"/>
<path d="M256.141 12.29L259.409 0.164795L219.33 0.504938L256.141 12.29Z" fill="#009CF8"/>
<path d="M219.33 0.504761L254.192 15.2111L254.282 15.2511L255.781 17.7422L256.141 12.2898L219.33 0.504761Z" fill="#518FD2"/>
<path d="M255.78 17.7412L252.531 17.2312L254.28 15.2512L255.78 17.7412Z" fill="#518FD2"/>
<path d="M249.894 13.4003L254.282 15.2511L245.246 25.4455L219.33 0.504761L249.894 13.4003Z" fill="#009CF8"/>
<path d="M440.424 331.287V332.018C440.424 336.229 437.006 339.651 432.798 339.651H37.044C32.8262 339.651 29.418 336.229 29.418 332.018V331.287C29.418 327.076 32.8362 323.654 37.044 323.654H432.788C437.006 323.654 440.424 327.076 440.424 331.287Z" fill="#1C31B5"/>
<path d="M440.424 331.287V331.658H29.418V331.287C29.418 327.076 32.8362 323.654 37.044 323.654H432.788C437.006 323.654 440.424 327.076 440.424 331.287Z" fill="#518FD2"/>
<path d="M295.477 299.634H171.162C168.194 299.634 165.785 297.223 165.785 294.251V229.143C165.785 226.172 168.194 223.761 171.162 223.761H295.487C298.456 223.761 300.865 226.172 300.865 229.143V294.251C300.855 297.223 298.456 299.634 295.477 299.634Z" fill="#18315B"/>
<path d="M243.784 299.544H222.865V323.414H243.784V299.544Z" fill="#000B29"/>
<path d="M233.09 273.022C238.825 273.022 243.474 268.368 243.474 262.628C243.474 256.887 238.825 252.233 233.09 252.233C227.354 252.233 222.705 256.887 222.705 262.628C222.705 268.368 227.354 273.022 233.09 273.022Z" fill="#1D567E"/>
<path d="M259.964 323.424H206.002V321.603C206.002 317.932 208.98 314.95 212.648 314.95H253.327C256.995 314.95 259.974 317.932 259.974 321.603V323.424H259.964Z" fill="#18315B"/>
</svg>
