<svg width="445" height="371" viewBox="0 0 445 371" fill="none" xmlns="http://www.w3.org/2000/svg">
<path d="M389.555 228.701C376.474 209.156 338.487 142.47 317.437 129.962C284.03 110.113 244.87 97.5815 205.022 98.2699C167.718 98.9117 128.243 116.041 107.975 151.537C91.522 180.358 86.4929 207.172 59.8536 228.701C41.4523 243.567 11.8843 248.502 2.70111 269.319C0.122365 275.153 -0.35605 281.373 0.215708 287.662H444.571L389.555 228.701Z" fill="#BFD3FC"/>
<path d="M141.986 139.77C143.911 138.014 145.97 138.329 147.023 138.668C147.956 136.27 149.966 133.533 154.277 133.533C161.967 133.533 162.572 141.09 162.572 141.09C167.985 139.455 169.026 144.238 169.026 144.432H139.951C139.963 141.344 141.986 139.77 141.986 139.77Z" fill="white"/>
<path d="M288.453 153.635C289.858 153.635 291.178 154.023 292.328 154.677C294.52 150.862 298.552 148.295 303.178 148.295C307.501 148.295 311.304 150.523 313.568 153.926C314.767 149.833 318.461 146.842 322.856 146.842C327.833 146.842 331.927 150.693 332.484 155.633C332.883 155.573 333.295 155.524 333.707 155.524C336.746 155.524 339.374 157.28 340.694 159.86H280.775C281.587 156.299 284.711 153.635 288.453 153.635Z" fill="white"/>
<path d="M250.149 8.283C252.437 8.283 254.291 6.42879 254.291 4.1415C254.291 1.85421 252.437 0 250.149 0C247.862 0 246.008 1.85421 246.008 4.1415C246.008 6.42879 247.862 8.283 250.149 8.283Z" fill="#EBF5FF"/>
<path d="M159.158 90.6166C159.158 92.1424 157.922 93.3897 156.384 93.3897C154.859 93.3897 153.611 92.1546 153.611 90.6166C153.611 89.0908 154.847 87.8435 156.384 87.8435C157.91 87.8556 159.158 89.0908 159.158 90.6166Z" fill="#84B4FE"/>
<path d="M269.864 76.0607L268.205 75.1767C268.096 75.1162 268.011 75.0314 267.963 74.9346L267.079 73.2755C266.848 72.8517 266.255 72.8517 266.025 73.2755L265.141 74.9346C265.08 75.0435 264.996 75.1283 264.899 75.1767L263.24 76.0607C262.816 76.2908 262.816 76.8842 263.24 77.1143L264.899 77.9983C265.008 78.0588 265.093 78.1436 265.141 78.2405L266.025 79.8995C266.255 80.3233 266.848 80.3233 267.079 79.8995L267.963 78.2405C268.023 78.1315 268.108 78.0467 268.205 77.9983L269.864 77.1143C270.288 76.8842 270.288 76.2908 269.864 76.0607Z" fill="#EBF5FF"/>
<path d="M172.092 20.5379L169.997 19.4117C169.864 19.339 169.755 19.2301 169.694 19.109L168.568 17.014C168.29 16.4812 167.527 16.4812 167.236 17.014L166.11 19.109C166.037 19.2422 165.928 19.3512 165.807 19.4117L163.712 20.5379C163.179 20.8164 163.179 21.5793 163.712 21.87L165.807 22.9962C165.94 23.0688 166.049 23.1778 166.11 23.2989L167.236 25.3939C167.515 25.9267 168.277 25.9267 168.568 25.3939L169.694 23.2989C169.767 23.1657 169.876 23.0567 169.997 22.9962L172.092 21.87C172.613 21.5793 172.613 20.8285 172.092 20.5379Z" fill="#C1DDF7"/>
<path d="M317.164 62.5463L314.633 61.19C314.475 61.1053 314.342 60.9721 314.257 60.8146L312.901 58.2837C312.562 57.6419 311.642 57.6419 311.303 58.2837L309.946 60.8146C309.861 60.9721 309.728 61.1053 309.571 61.19L307.04 62.5463C306.398 62.8854 306.398 63.8057 307.04 64.1448L309.571 65.5011C309.728 65.5858 309.861 65.719 309.946 65.8765L311.303 68.4074C311.642 69.0492 312.562 69.0492 312.901 68.4074L314.257 65.8765C314.342 65.719 314.475 65.5858 314.633 65.5011L317.164 64.1448C317.805 63.8057 317.805 62.8854 317.164 62.5463Z" fill="#C1DDF7"/>
<path d="M120.044 52.8102L117.731 51.5629C117.585 51.4903 117.464 51.3692 117.392 51.2239L116.144 48.9109C115.829 48.3297 114.994 48.3297 114.679 48.9109L113.432 51.2239C113.359 51.3692 113.238 51.4903 113.093 51.5629L110.78 52.8102C110.198 53.1251 110.198 53.9606 110.78 54.2755L113.093 55.5228C113.238 55.5954 113.359 55.7166 113.432 55.8619L114.679 58.1748C114.994 58.7561 115.829 58.7561 116.144 58.1748L117.392 55.8619C117.464 55.7166 117.585 55.5954 117.731 55.5228L120.044 54.2755C120.637 53.9606 120.637 53.1251 120.044 52.8102Z" fill="#84B4FE"/>
<path d="M274.674 38.3755L272.979 37.4672C272.87 37.4067 272.785 37.3219 272.724 37.2129L271.816 35.5176C271.586 35.0937 270.968 35.0937 270.738 35.5176L269.83 37.2129C269.769 37.3219 269.685 37.4067 269.576 37.4672L267.88 38.3755C267.457 38.6055 267.457 39.2231 267.88 39.4532L269.576 40.3614C269.685 40.422 269.769 40.5068 269.83 40.6157L270.738 42.3111C270.968 42.7349 271.586 42.7349 271.816 42.3111L272.724 40.6157C272.785 40.5068 272.87 40.422 272.979 40.3614L274.674 39.4532C275.098 39.211 275.098 38.6055 274.674 38.3755Z" fill="#84B4FE"/>
<path d="M227.517 160.731H203.383V274.065H227.517V160.731Z" fill="white"/>
<path d="M224.67 167.21C224.67 162.342 220.722 158.382 215.842 158.382C210.974 158.382 207.014 162.33 207.014 167.21C207.014 167.21 205.876 188.075 215.842 199.18C225.808 188.075 224.67 167.21 224.67 167.21Z" fill="#C3DBF2"/>
<path d="M185.024 119.425C185.024 119.425 151.977 135.422 165.067 182.625C165.067 182.625 172.054 158.903 194.482 152.763L185.024 119.425Z" fill="white"/>
<path d="M246.967 119.425C246.967 119.425 280.015 135.422 266.924 182.625C266.924 182.625 259.937 158.903 237.51 152.763L246.967 119.425Z" fill="white"/>
<path d="M226.718 162.596H204.254C203.37 162.596 202.595 161.979 202.401 161.119L201.166 155.682C200.9 154.495 201.796 153.369 203.019 153.369H227.941C229.164 153.369 230.06 154.495 229.793 155.682L228.558 161.119C228.377 161.979 227.602 162.596 226.718 162.596Z" fill="white"/>
<path d="M183.077 106.674C183.077 106.674 186.528 138.328 197.184 158.382C197.184 158.382 214.102 150.232 234.167 158.382C234.167 158.382 246.386 141.465 248.893 104.167C250.334 82.6725 248.614 58.1383 241.494 37.007H191.783C185.172 54.2269 180.461 77.3563 183.077 106.674Z" fill="#BFD3FC"/>
<path d="M212.004 2.71255C207.003 8.36776 198.429 19.7024 191.781 37.0071H241.491C236.938 23.4806 230.181 11.3467 220.614 2.28873C218.144 -0.0363268 214.245 0.169526 212.004 2.71255Z" fill="white"/>
<path d="M215.116 105.148C215.116 105.148 199.87 139.794 215.116 180.979C215.116 180.979 232.057 146.612 215.116 105.148Z" fill="white"/>
<path d="M216.535 92.1787C227.129 92.1787 235.717 83.5907 235.717 72.997C235.717 62.4032 227.129 53.8153 216.535 53.8153C205.941 53.8153 197.354 62.4032 197.354 72.997C197.354 83.5907 205.941 92.1787 216.535 92.1787Z" fill="white"/>
<path d="M229.511 76.0554C231.193 68.8936 226.752 61.7239 219.59 60.0414C212.428 58.3589 205.258 62.8007 203.576 69.9626C201.893 77.1244 206.335 84.2941 213.497 85.9766C220.659 87.6591 227.828 83.2172 229.511 76.0554Z" fill="#C3DBF2"/>
<path d="M182.336 306.604C197.839 306.604 210.406 294.21 210.406 278.921C210.406 263.633 197.839 251.239 182.336 251.239C166.833 251.239 154.266 263.633 154.266 278.921C154.266 294.21 166.833 306.604 182.336 306.604Z" fill="white"/>
<path d="M268.218 303.722C282.109 303.722 293.37 292.619 293.37 278.922C293.37 265.225 282.109 254.121 268.218 254.121C254.327 254.121 243.066 265.225 243.066 278.922C243.066 292.619 254.327 303.722 268.218 303.722Z" fill="white"/>
<path d="M226.729 276.827C237.59 276.827 246.395 268.147 246.395 257.439C246.395 246.732 237.59 238.052 226.729 238.052C215.867 238.052 207.062 246.732 207.062 257.439C207.062 268.147 215.867 276.827 226.729 276.827Z" fill="white"/>
<path d="M190.895 259.171C198.459 259.171 204.591 253.126 204.591 245.669C204.591 238.211 198.459 232.166 190.895 232.166C183.331 232.166 177.199 238.211 177.199 245.669C177.199 253.126 183.331 259.171 190.895 259.171Z" fill="white"/>
<path d="M225.822 243.743C230.992 243.743 235.182 239.612 235.182 234.516C235.182 229.419 230.992 225.288 225.822 225.288C220.652 225.288 216.461 229.419 216.461 234.516C216.461 239.612 220.652 243.743 225.822 243.743Z" fill="white"/>
<path d="M209.184 273.581C218.347 273.581 225.774 266.256 225.774 257.221C225.774 248.186 218.347 240.861 209.184 240.861C200.021 240.861 192.594 248.186 192.594 257.221C192.594 266.256 200.021 273.581 209.184 273.581Z" fill="white"/>
<path d="M76.7273 370.289C104.743 370.289 127.455 347.897 127.455 320.276C127.455 292.655 104.743 270.263 76.7273 270.263C48.7114 270.263 26 292.655 26 320.276C26 347.897 48.7114 370.289 76.7273 370.289Z" fill="white"/>
<path d="M137.626 329.116C158.633 329.116 175.663 312.331 175.663 291.625C175.663 270.919 158.633 254.133 137.626 254.133C116.619 254.133 99.5898 270.919 99.5898 291.625C99.5898 312.331 116.619 329.116 137.626 329.116Z" fill="white"/>
<path d="M323.632 370.144C353.32 370.144 377.386 346.413 377.386 317.14C377.386 287.866 353.32 264.136 323.632 264.136C293.944 264.136 269.877 287.866 269.877 317.14C269.877 346.413 293.944 370.144 323.632 370.144Z" fill="white"/>
<path d="M190.316 342.206C211.323 342.206 228.352 325.421 228.352 304.715C228.352 284.009 211.323 267.223 190.316 267.223C169.309 267.223 152.279 284.009 152.279 304.715C152.279 325.421 169.309 342.206 190.316 342.206Z" fill="white"/>
<path d="M236.005 342.207C259.613 342.207 278.752 323.339 278.752 300.065C278.752 276.791 259.613 257.923 236.005 257.923C212.396 257.923 193.258 276.791 193.258 300.065C193.258 323.339 212.396 342.207 236.005 342.207Z" fill="white"/>
</svg>
